<?plantuml 1.2026.2?><svg xmlns="http://www.w3.org/2000/svg" xmlns:xlink="http://www.w3.org/1999/xlink" contentStyleType="text/css" data-diagram-type="CLASS" height="915px" preserveAspectRatio="none" style="width:1181px;height:915px;background:#FFFFFF;" version="1.1" viewBox="0 0 1181 915" width="1181px" zoomAndPan="magnify"><title>InstAlert Backend &#8212; Alert &#8212; modelo de dominio</title><defs/><g><g class="title" data-source-line="8"><text fill="#000000" font-family="sans-serif" font-size="14" font-weight="bold" lengthAdjust="spacing" textLength="323.6953" x="421.8682" y="24.5332">InstAlert Backend &#8212; Alert &#8212; modelo de dominio</text></g><!--class B_Alert--><g class="entity" data-qualified-name="B_Alert" data-source-line="9" id="ent0002"><rect fill="#F1F1F1" height="327.875" rx="2.5" ry="2.5" style="stroke:#181818;stroke-width:0.5;" width="286.4707" x="398" y="45.6094"/><ellipse cx="504.873" cy="65.7031" fill="#ADD1B2" rx="10" ry="10" style="stroke:#181818;stroke-width:1;"/><path d="M506.3574,62.9063 Q506.4668,62.75 506.5918,62.6719 Q506.7324,62.5938 506.8887,62.5938 Q507.1543,62.5938 507.3105,62.7813 Q507.4824,62.9688 507.4824,63.3906 L507.4824,64.4219 Q507.4824,64.8438 507.3105,65.0313 Q507.1543,65.2188 506.8887,65.2188 Q506.6387,65.2188 506.498,65.0781 Q506.3574,64.9531 506.2793,64.5781 Q506.248,64.3281 506.123,64.2031 Q505.873,63.9375 505.4355,63.7813 Q505.0137,63.625 504.5762,63.625 Q504.0449,63.625 503.5918,63.8594 Q503.1387,64.0938 502.7949,64.625 Q502.4512,65.1406 502.4512,65.875 L502.4512,66.6563 Q502.4512,67.5156 503.0762,68.0938 Q503.7168,68.6719 504.8262,68.6719 Q505.498,68.6719 505.9668,68.5 Q506.2324,68.3906 506.5293,68.0781 Q506.7168,67.8906 506.8262,67.8438 Q506.9355,67.7813 507.0605,67.7813 Q507.3105,67.7813 507.4824,67.9688 Q507.6699,68.1406 507.6699,68.3906 Q507.6699,68.6406 507.4199,68.9219 Q507.0605,69.3281 506.498,69.5625 Q505.748,69.875 504.8418,69.875 Q503.7637,69.875 502.9199,69.4375 Q502.2168,69.0938 501.7324,68.3281 Q501.248,67.5625 501.248,66.6719 L501.248,65.8594 Q501.248,64.9219 501.6855,64.1094 Q502.123,63.2969 502.8887,62.8594 Q503.6699,62.4219 504.5293,62.4219 Q505.0605,62.4219 505.5137,62.5469 Q505.9668,62.6563 506.3574,62.9063 Z " fill="#000000"/><text fill="#000000" font-family="sans-serif" font-size="12" font-style="italic" lengthAdjust="spacing" textLength="68.7246" x="521.873" y="63.0664">&#171;Aggregate&#187;</text><text fill="#000000" font-family="sans-serif" font-size="12" lengthAdjust="spacing" textLength="24.6738" x="543.8984" y="78.1602">Alert</text><line style="stroke:#181818;stroke-width:0.5;" x1="399" x2="683.4707" y1="85.7969" y2="85.7969"/><text fill="#000000" font-family="sans-serif" font-size="12" lengthAdjust="spacing" textLength="36.3574" x="404" y="102.2539">+Id: int</text><text fill="#000000" font-family="sans-serif" font-size="12" lengthAdjust="spacing" textLength="85.0488" x="404" y="117.3477">+BusinessId: int</text><text fill="#000000" font-family="sans-serif" font-size="12" lengthAdjust="spacing" textLength="116.3789" x="404" y="132.4414">+EmittedByUserId: int</text><text fill="#000000" font-family="sans-serif" font-size="12" lengthAdjust="spacing" textLength="128.4023" x="404" y="147.5352">+ClientRequestId: string</text><text fill="#000000" font-family="sans-serif" font-size="12" lengthAdjust="spacing" textLength="86.3848" x="404" y="162.6289">+Kind: AlertKind</text><text fill="#000000" font-family="sans-serif" font-size="12" lengthAdjust="spacing" textLength="106.3887" x="404" y="177.7227">+Status: AlertStatus</text><text fill="#000000" font-family="sans-serif" font-size="12" lengthAdjust="spacing" textLength="97.7285" x="404" y="192.8164">+Latitude: decimal</text><text fill="#000000" font-family="sans-serif" font-size="12" lengthAdjust="spacing" textLength="107.7422" x="404" y="207.9102">+Longitude: decimal</text><text fill="#000000" font-family="sans-serif" font-size="12" lengthAdjust="spacing" textLength="158.3848" x="404" y="223.0039">+OccurredAt: DateTimeOffset</text><text fill="#000000" font-family="sans-serif" font-size="12" lengthAdjust="spacing" textLength="165.0703" x="404" y="238.0977">+ActivatedAt: DateTimeOffset?</text><text fill="#000000" font-family="sans-serif" font-size="12" lengthAdjust="spacing" textLength="165.7383" x="404" y="253.1914">+ResolvedAt: DateTimeOffset?</text><text fill="#000000" font-family="sans-serif" font-size="12" lengthAdjust="spacing" textLength="216.4746" x="404" y="268.2852">+ResolutionReason: ResolutionReason?</text><text fill="#000000" font-family="sans-serif" font-size="12" lengthAdjust="spacing" textLength="67.0371" x="404" y="283.3789">+Version: int</text><text fill="#000000" font-family="sans-serif" font-size="12" lengthAdjust="spacing" textLength="151.7285" x="404" y="298.4727">+CreatedAt: DateTimeOffset</text><text fill="#000000" font-family="sans-serif" font-size="12" lengthAdjust="spacing" textLength="154.4063" x="404" y="313.5664">+UpdatedAt: DateTimeOffset</text><line style="stroke:#181818;stroke-width:0.5;" x1="399" x2="683.4707" y1="320.2031" y2="320.2031"/><text fill="#000000" font-family="sans-serif" font-size="12" lengthAdjust="spacing" textLength="108.3809" x="404" y="336.6602">+Activate(now): void</text><text fill="#000000" font-family="sans-serif" font-size="12" lengthAdjust="spacing" textLength="152.4082" x="404" y="351.7539">+Resolve(reason, now): void</text><text fill="#000000" font-family="sans-serif" font-size="12" lengthAdjust="spacing" textLength="274.4707" x="404" y="366.8477">+CompleteReport(type, description): IncidentReport</text></g><!--class B_IncidentReport--><g class="entity" data-qualified-name="B_IncidentReport" data-source-line="29" id="ent0003"><rect fill="#F1F1F1" height="161.8438" rx="2.5" ry="2.5" style="stroke:#181818;stroke-width:0.5;" width="223.1016" x="51.5" y="495.6094"/><ellipse cx="120.0273" cy="515.7031" fill="#ADD1B2" rx="10" ry="10" style="stroke:#181818;stroke-width:1;"/><path d="M121.5117,512.9063 Q121.6211,512.75 121.7461,512.6719 Q121.8867,512.5938 122.043,512.5938 Q122.3086,512.5938 122.4648,512.7813 Q122.6367,512.9688 122.6367,513.3906 L122.6367,514.4219 Q122.6367,514.8438 122.4648,515.0313 Q122.3086,515.2188 122.043,515.2188 Q121.793,515.2188 121.6523,515.0781 Q121.5117,514.9531 121.4336,514.5781 Q121.4023,514.3281 121.2773,514.2031 Q121.0273,513.9375 120.5898,513.7813 Q120.168,513.625 119.7305,513.625 Q119.1992,513.625 118.7461,513.8594 Q118.293,514.0938 117.9492,514.625 Q117.6055,515.1406 117.6055,515.875 L117.6055,516.6563 Q117.6055,517.5156 118.2305,518.0938 Q118.8711,518.6719 119.9805,518.6719 Q120.6523,518.6719 121.1211,518.5 Q121.3867,518.3906 121.6836,518.0781 Q121.8711,517.8906 121.9805,517.8438 Q122.0898,517.7813 122.2148,517.7813 Q122.4648,517.7813 122.6367,517.9688 Q122.8242,518.1406 122.8242,518.3906 Q122.8242,518.6406 122.5742,518.9219 Q122.2148,519.3281 121.6523,519.5625 Q120.9023,519.875 119.9961,519.875 Q118.918,519.875 118.0742,519.4375 Q117.3711,519.0938 116.8867,518.3281 Q116.4023,517.5625 116.4023,516.6719 L116.4023,515.8594 Q116.4023,514.9219 116.8398,514.1094 Q117.2773,513.2969 118.043,512.8594 Q118.8242,512.4219 119.6836,512.4219 Q120.2148,512.4219 120.668,512.5469 Q121.1211,512.6563 121.5117,512.9063 Z " fill="#000000"/><text fill="#000000" font-family="sans-serif" font-size="12" font-style="italic" lengthAdjust="spacing" textLength="43.3594" x="156.3711" y="513.0664">&#171;Entity&#187;</text><text fill="#000000" font-family="sans-serif" font-size="12" lengthAdjust="spacing" textLength="78.0469" x="139.0273" y="528.1602">IncidentReport</text><line style="stroke:#181818;stroke-width:0.5;" x1="52.5" x2="273.6016" y1="535.7969" y2="535.7969"/><text fill="#000000" font-family="sans-serif" font-size="12" lengthAdjust="spacing" textLength="36.3574" x="57.5" y="552.2539">+Id: int</text><text fill="#000000" font-family="sans-serif" font-size="12" lengthAdjust="spacing" textLength="61.0313" x="57.5" y="567.3477">+AlertId: int</text><text fill="#000000" font-family="sans-serif" font-size="12" lengthAdjust="spacing" textLength="157.7637" x="57.5" y="582.4414">+IncidentType: IncidentType?</text><text fill="#000000" font-family="sans-serif" font-size="12" lengthAdjust="spacing" textLength="103.043" x="57.5" y="597.5352">+Description: string</text><text fill="#000000" font-family="sans-serif" font-size="12" lengthAdjust="spacing" textLength="117.7324" x="57.5" y="612.6289">+Status: ReportStatus</text><text fill="#000000" font-family="sans-serif" font-size="12" lengthAdjust="spacing" textLength="173.7422" x="57.5" y="627.7227">+CompletedAt: DateTimeOffset?</text><line style="stroke:#181818;stroke-width:0.5;" x1="52.5" x2="273.6016" y1="634.3594" y2="634.3594"/><text fill="#000000" font-family="sans-serif" font-size="12" lengthAdjust="spacing" textLength="211.1016" x="57.5" y="650.8164">+Complete(type, description, now): void</text></g><!--class B_NotificationPreference--><g class="entity" data-qualified-name="B_NotificationPreference" data-source-line="38" id="ent0004"><rect fill="#F1F1F1" height="161.8438" rx="2.5" ry="2.5" style="stroke:#181818;stroke-width:0.5;" width="255.123" x="719.5" y="128.6094"/><ellipse cx="784.0313" cy="148.7031" fill="#ADD1B2" rx="10" ry="10" style="stroke:#181818;stroke-width:1;"/><path d="M785.5156,145.9063 Q785.625,145.75 785.75,145.6719 Q785.8906,145.5938 786.0469,145.5938 Q786.3125,145.5938 786.4688,145.7813 Q786.6406,145.9688 786.6406,146.3906 L786.6406,147.4219 Q786.6406,147.8438 786.4688,148.0313 Q786.3125,148.2188 786.0469,148.2188 Q785.7969,148.2188 785.6563,148.0781 Q785.5156,147.9531 785.4375,147.5781 Q785.4063,147.3281 785.2813,147.2031 Q785.0313,146.9375 784.5938,146.7813 Q784.1719,146.625 783.7344,146.625 Q783.2031,146.625 782.75,146.8594 Q782.2969,147.0938 781.9531,147.625 Q781.6094,148.1406 781.6094,148.875 L781.6094,149.6563 Q781.6094,150.5156 782.2344,151.0938 Q782.875,151.6719 783.9844,151.6719 Q784.6563,151.6719 785.125,151.5 Q785.3906,151.3906 785.6875,151.0781 Q785.875,150.8906 785.9844,150.8438 Q786.0938,150.7813 786.2188,150.7813 Q786.4688,150.7813 786.6406,150.9688 Q786.8281,151.1406 786.8281,151.3906 Q786.8281,151.6406 786.5781,151.9219 Q786.2188,152.3281 785.6563,152.5625 Q784.9063,152.875 784,152.875 Q782.9219,152.875 782.0781,152.4375 Q781.375,152.0938 780.8906,151.3281 Q780.4063,150.5625 780.4063,149.6719 L780.4063,148.8594 Q780.4063,147.9219 780.8438,147.1094 Q781.2813,146.2969 782.0469,145.8594 Q782.8281,145.4219 783.6875,145.4219 Q784.2188,145.4219 784.6719,145.5469 Q785.125,145.6563 785.5156,145.9063 Z " fill="#000000"/><text fill="#000000" font-family="sans-serif" font-size="12" font-style="italic" lengthAdjust="spacing" textLength="68.7246" x="827.6992" y="146.0664">&#171;Aggregate&#187;</text><text fill="#000000" font-family="sans-serif" font-size="12" lengthAdjust="spacing" textLength="118.0605" x="803.0313" y="161.1602">NotificationPreference</text><line style="stroke:#181818;stroke-width:0.5;" x1="720.5" x2="973.623" y1="168.7969" y2="168.7969"/><text fill="#000000" font-family="sans-serif" font-size="12" lengthAdjust="spacing" textLength="36.3574" x="725.5" y="185.2539">+Id: int</text><text fill="#000000" font-family="sans-serif" font-size="12" lengthAdjust="spacing" textLength="61.6934" x="725.5" y="200.3477">+UserId: int</text><text fill="#000000" font-family="sans-serif" font-size="12" lengthAdjust="spacing" textLength="140.4082" x="725.5" y="215.4414">+ReceiveEmergency: bool</text><text fill="#000000" font-family="sans-serif" font-size="12" lengthAdjust="spacing" textLength="136.4121" x="725.5" y="230.5352">+ReceivePreventive: bool</text><text fill="#000000" font-family="sans-serif" font-size="12" lengthAdjust="spacing" textLength="100.377" x="725.5" y="245.6289">+RadiusMeters: int</text><text fill="#000000" font-family="sans-serif" font-size="12" lengthAdjust="spacing" textLength="154.4063" x="725.5" y="260.7227">+UpdatedAt: DateTimeOffset</text><line style="stroke:#181818;stroke-width:0.5;" x1="720.5" x2="973.623" y1="267.3594" y2="267.3594"/><text fill="#000000" font-family="sans-serif" font-size="12" lengthAdjust="spacing" textLength="243.123" x="725.5" y="283.8164">+Update(emergency, preventive, radius): void</text></g><!--class B_EmergencyContact--><g class="entity" data-qualified-name="B_EmergencyContact" data-source-line="47" id="ent0005"><rect fill="#F1F1F1" height="146.75" rx="2.5" ry="2.5" style="stroke:#181818;stroke-width:0.5;" width="164.4316" x="1010" y="136.1094"/><ellipse cx="1038.5731" cy="156.2031" fill="#ADD1B2" rx="10" ry="10" style="stroke:#181818;stroke-width:1;"/><path d="M1040.0575,153.4063 Q1040.1669,153.25 1040.2919,153.1719 Q1040.4325,153.0938 1040.5888,153.0938 Q1040.8544,153.0938 1041.0106,153.2813 Q1041.1825,153.4688 1041.1825,153.8906 L1041.1825,154.9219 Q1041.1825,155.3438 1041.0106,155.5313 Q1040.8544,155.7188 1040.5888,155.7188 Q1040.3388,155.7188 1040.1981,155.5781 Q1040.0575,155.4531 1039.9794,155.0781 Q1039.9481,154.8281 1039.8231,154.7031 Q1039.5731,154.4375 1039.1356,154.2813 Q1038.7138,154.125 1038.2763,154.125 Q1037.745,154.125 1037.2919,154.3594 Q1036.8388,154.5938 1036.495,155.125 Q1036.1513,155.6406 1036.1513,156.375 L1036.1513,157.1563 Q1036.1513,158.0156 1036.7763,158.5938 Q1037.4169,159.1719 1038.5263,159.1719 Q1039.1981,159.1719 1039.6669,159 Q1039.9325,158.8906 1040.2294,158.5781 Q1040.4169,158.3906 1040.5263,158.3438 Q1040.6356,158.2813 1040.7606,158.2813 Q1041.0106,158.2813 1041.1825,158.4688 Q1041.37,158.6406 1041.37,158.8906 Q1041.37,159.1406 1041.12,159.4219 Q1040.7606,159.8281 1040.1981,160.0625 Q1039.4481,160.375 1038.5419,160.375 Q1037.4638,160.375 1036.62,159.9375 Q1035.9169,159.5938 1035.4325,158.8281 Q1034.9481,158.0625 1034.9481,157.1719 L1034.9481,156.3594 Q1034.9481,155.4219 1035.3856,154.6094 Q1035.8231,153.7969 1036.5888,153.3594 Q1037.37,152.9219 1038.2294,152.9219 Q1038.7606,152.9219 1039.2138,153.0469 Q1039.6669,153.1563 1040.0575,153.4063 Z " fill="#000000"/><text fill="#000000" font-family="sans-serif" font-size="12" font-style="italic" lengthAdjust="spacing" textLength="68.7246" x="1071.4728" y="153.5664">&#171;Aggregate&#187;</text><text fill="#000000" font-family="sans-serif" font-size="12" lengthAdjust="spacing" textLength="102.0469" x="1054.8116" y="168.6602">EmergencyContact</text><line style="stroke:#181818;stroke-width:0.5;" x1="1011" x2="1173.4316" y1="176.2969" y2="176.2969"/><text fill="#000000" font-family="sans-serif" font-size="12" lengthAdjust="spacing" textLength="36.3574" x="1016" y="192.7539">+Id: int</text><text fill="#000000" font-family="sans-serif" font-size="12" lengthAdjust="spacing" textLength="61.6934" x="1016" y="207.8477">+UserId: int</text><text fill="#000000" font-family="sans-serif" font-size="12" lengthAdjust="spacing" textLength="75.0293" x="1016" y="222.9414">+Name: string</text><text fill="#000000" font-family="sans-serif" font-size="12" lengthAdjust="spacing" textLength="77.7188" x="1016" y="238.0352">+Phone: string</text><text fill="#000000" font-family="sans-serif" font-size="12" lengthAdjust="spacing" textLength="151.7285" x="1016" y="253.1289">+CreatedAt: DateTimeOffset</text><line style="stroke:#181818;stroke-width:0.5;" x1="1011" x2="1173.4316" y1="259.7656" y2="259.7656"/><text fill="#000000" font-family="sans-serif" font-size="12" lengthAdjust="spacing" textLength="152.4316" x="1016" y="276.2227">+Update(name, phone): void</text></g><!--class B_AlertDelivery--><g class="entity" data-qualified-name="B_AlertDelivery" data-source-line="55" id="ent0006"><rect fill="#F1F1F1" height="252.4063" rx="2.5" ry="2.5" style="stroke:#181818;stroke-width:0.5;" width="156.3984" x="310" y="450.6094"/><ellipse cx="350.2723" cy="470.7031" fill="#ADD1B2" rx="10" ry="10" style="stroke:#181818;stroke-width:1;"/><path d="M351.7566,467.9063 Q351.866,467.75 351.991,467.6719 Q352.1316,467.5938 352.2879,467.5938 Q352.5535,467.5938 352.7098,467.7813 Q352.8816,467.9688 352.8816,468.3906 L352.8816,469.4219 Q352.8816,469.8438 352.7098,470.0313 Q352.5535,470.2188 352.2879,470.2188 Q352.0379,470.2188 351.8973,470.0781 Q351.7566,469.9531 351.6785,469.5781 Q351.6473,469.3281 351.5223,469.2031 Q351.2723,468.9375 350.8348,468.7813 Q350.4129,468.625 349.9754,468.625 Q349.4441,468.625 348.991,468.8594 Q348.5379,469.0938 348.1941,469.625 Q347.8504,470.1406 347.8504,470.875 L347.8504,471.6563 Q347.8504,472.5156 348.4754,473.0938 Q349.116,473.6719 350.2254,473.6719 Q350.8973,473.6719 351.366,473.5 Q351.6316,473.3906 351.9285,473.0781 Q352.116,472.8906 352.2254,472.8438 Q352.3348,472.7813 352.4598,472.7813 Q352.7098,472.7813 352.8816,472.9688 Q353.0691,473.1406 353.0691,473.3906 Q353.0691,473.6406 352.8191,473.9219 Q352.4598,474.3281 351.8973,474.5625 Q351.1473,474.875 350.241,474.875 Q349.1629,474.875 348.3191,474.4375 Q347.616,474.0938 347.1316,473.3281 Q346.6473,472.5625 346.6473,471.6719 L346.6473,470.8594 Q346.6473,469.9219 347.0848,469.1094 Q347.5223,468.2969 348.2879,467.8594 Q349.0691,467.4219 349.9285,467.4219 Q350.4598,467.4219 350.9129,467.5469 Q351.366,467.6563 351.7566,467.9063 Z " fill="#000000"/><text fill="#000000" font-family="sans-serif" font-size="12" font-style="italic" lengthAdjust="spacing" textLength="68.7246" x="368.7561" y="468.0664">&#171;Aggregate&#187;</text><text fill="#000000" font-family="sans-serif" font-size="12" lengthAdjust="spacing" textLength="68.0156" x="369.1105" y="483.1602">AlertDelivery</text><line style="stroke:#181818;stroke-width:0.5;" x1="311" x2="465.3984" y1="490.7969" y2="490.7969"/><text fill="#000000" font-family="sans-serif" font-size="12" lengthAdjust="spacing" textLength="36.3574" x="316" y="507.2539">+Id: int</text><text fill="#000000" font-family="sans-serif" font-size="12" lengthAdjust="spacing" textLength="61.0313" x="316" y="522.3477">+AlertId: int</text><text fill="#000000" font-family="sans-serif" font-size="12" lengthAdjust="spacing" textLength="111.7207" x="316" y="537.4414">+RecipientUserId: int</text><text fill="#000000" font-family="sans-serif" font-size="12" lengthAdjust="spacing" textLength="97.7227" x="316" y="552.5352">+EventVersion: int</text><text fill="#000000" font-family="sans-serif" font-size="12" lengthAdjust="spacing" textLength="87.7207" x="316" y="567.6289">+Channel: string</text><text fill="#000000" font-family="sans-serif" font-size="12" lengthAdjust="spacing" textLength="125.0566" x="316" y="582.7227">+Status: DeliveryStatus</text><text fill="#000000" font-family="sans-serif" font-size="12" lengthAdjust="spacing" textLength="73.6992" x="316" y="597.8164">+Attempts: int</text><text fill="#000000" font-family="sans-serif" font-size="12" lengthAdjust="spacing" textLength="140.3965" x="316" y="612.9102">+SentAt: DateTimeOffset?</text><text fill="#000000" font-family="sans-serif" font-size="12" lengthAdjust="spacing" textLength="144.3984" x="316" y="628.0039">+ReadAt: DateTimeOffset?</text><text fill="#000000" font-family="sans-serif" font-size="12" lengthAdjust="spacing" textLength="99.041" x="316" y="643.0977">+LastError: string?</text><line style="stroke:#181818;stroke-width:0.5;" x1="311" x2="465.3984" y1="649.7344" y2="649.7344"/><text fill="#000000" font-family="sans-serif" font-size="12" lengthAdjust="spacing" textLength="117.0469" x="316" y="666.1914">+MarkSent(now): void</text><text fill="#000000" font-family="sans-serif" font-size="12" lengthAdjust="spacing" textLength="121.0488" x="316" y="681.2852">+MarkRead(now): void</text><text fill="#000000" font-family="sans-serif" font-size="12" lengthAdjust="spacing" textLength="128.3672" x="316" y="696.3789">+MarkFailed(error): void</text></g><!--class B_AlertKind--><g class="entity" data-qualified-name="B_AlertKind" data-source-line="70" id="ent0007"><rect fill="#F1F1F1" height="83.2813" rx="2.5" ry="2.5" style="stroke:#181818;stroke-width:0.5;" width="78.6914" x="501.5" y="535.1094"/><ellipse cx="515.5" cy="550.1094" fill="#EB937F" rx="10" ry="10" style="stroke:#181818;stroke-width:1;"/><path d="M515.375,551.1406 L515.375,552.9063 L518.4375,552.9063 L518.4375,552.25 Q518.4375,551.8281 518.5938,551.6406 Q518.7656,551.4531 519.0313,551.4531 Q519.2969,551.4531 519.4688,551.6406 Q519.6406,551.8281 519.6406,552.25 L519.6406,554.1094 L513.9844,554.1094 Q513.5469,554.1094 513.3594,553.9531 Q513.1719,553.7813 513.1719,553.5 Q513.1719,553.2344 513.3594,553.0781 Q513.5469,552.9063 513.9844,552.9063 L514.1719,552.9063 L514.1719,548.2031 L513.9844,548.2031 Q513.5469,548.2031 513.3594,548.0469 Q513.1719,547.875 513.1719,547.6094 Q513.1719,547.3281 513.3594,547.1719 Q513.5469,547 513.9844,547 L519.375,547 L519.375,548.8281 Q519.375,549.2656 519.2031,549.4531 Q519.0469,549.625 518.7656,549.625 Q518.5,549.625 518.3281,549.4531 Q518.1719,549.2656 518.1719,548.8281 L518.1719,548.2031 L515.375,548.2031 L515.375,549.9375 L516.4219,549.9375 Q516.4219,549.4688 516.5156,549.3438 Q516.6875,549.0469 517.0313,549.0469 Q517.2969,549.0469 517.4531,549.2344 Q517.625,549.4219 517.625,549.8594 L517.625,551.2344 Q517.625,551.625 517.5313,551.7656 Q517.3438,552.0469 517.0313,552.0469 Q516.6875,552.0469 516.5156,551.75 Q516.4219,551.625 516.4219,551.1406 L515.375,551.1406 Z " fill="#000000"/><text fill="#000000" font-family="sans-serif" font-size="12" lengthAdjust="spacing" textLength="48.6914" x="528.5" y="555.0195">AlertKind</text><line style="stroke:#181818;stroke-width:0.5;" x1="502.5" x2="579.1914" y1="565.1094" y2="565.1094"/><text fill="#000000" font-family="sans-serif" font-size="12" lengthAdjust="spacing" textLength="37.0254" x="507.5" y="581.5664">+Panic</text><text fill="#000000" font-family="sans-serif" font-size="12" lengthAdjust="spacing" textLength="63.7031" x="507.5" y="596.6602">+Preventive</text><text fill="#000000" font-family="sans-serif" font-size="12" lengthAdjust="spacing" textLength="56.3496" x="507.5" y="611.7539">+Historical</text></g><!--class B_AlertStatus--><g class="entity" data-qualified-name="B_AlertStatus" data-source-line="75" id="ent0008"><rect fill="#F1F1F1" height="68.1875" rx="2.5" ry="2.5" style="stroke:#181818;stroke-width:0.5;" width="88.6934" x="615.5" y="542.6094"/><ellipse cx="629.5" cy="557.6094" fill="#EB937F" rx="10" ry="10" style="stroke:#181818;stroke-width:1;"/><path d="M629.375,558.6406 L629.375,560.4063 L632.4375,560.4063 L632.4375,559.75 Q632.4375,559.3281 632.5938,559.1406 Q632.7656,558.9531 633.0313,558.9531 Q633.2969,558.9531 633.4688,559.1406 Q633.6406,559.3281 633.6406,559.75 L633.6406,561.6094 L627.9844,561.6094 Q627.5469,561.6094 627.3594,561.4531 Q627.1719,561.2813 627.1719,561 Q627.1719,560.7344 627.3594,560.5781 Q627.5469,560.4063 627.9844,560.4063 L628.1719,560.4063 L628.1719,555.7031 L627.9844,555.7031 Q627.5469,555.7031 627.3594,555.5469 Q627.1719,555.375 627.1719,555.1094 Q627.1719,554.8281 627.3594,554.6719 Q627.5469,554.5 627.9844,554.5 L633.375,554.5 L633.375,556.3281 Q633.375,556.7656 633.2031,556.9531 Q633.0469,557.125 632.7656,557.125 Q632.5,557.125 632.3281,556.9531 Q632.1719,556.7656 632.1719,556.3281 L632.1719,555.7031 L629.375,555.7031 L629.375,557.4375 L630.4219,557.4375 Q630.4219,556.9688 630.5156,556.8438 Q630.6875,556.5469 631.0313,556.5469 Q631.2969,556.5469 631.4531,556.7344 Q631.625,556.9219 631.625,557.3594 L631.625,558.7344 Q631.625,559.125 631.5313,559.2656 Q631.3438,559.5469 631.0313,559.5469 Q630.6875,559.5469 630.5156,559.25 Q630.4219,559.125 630.4219,558.6406 L629.375,558.6406 Z " fill="#000000"/><text fill="#000000" font-family="sans-serif" font-size="12" lengthAdjust="spacing" textLength="58.6934" x="642.5" y="562.5195">AlertStatus</text><line style="stroke:#181818;stroke-width:0.5;" x1="616.5" x2="703.1934" y1="572.6094" y2="572.6094"/><text fill="#000000" font-family="sans-serif" font-size="12" lengthAdjust="spacing" textLength="39.6855" x="621.5" y="589.0664">+Active</text><text fill="#000000" font-family="sans-serif" font-size="12" lengthAdjust="spacing" textLength="57.0352" x="621.5" y="604.1602">+Resolved</text></g><!--class B_ResolutionReason--><g class="entity" data-qualified-name="B_ResolutionReason" data-source-line="79" id="ent0009"><rect fill="#F1F1F1" height="83.2813" rx="2.5" ry="2.5" style="stroke:#181818;stroke-width:0.5;" width="128.0625" x="740" y="535.1094"/><ellipse cx="754" cy="550.1094" fill="#EB937F" rx="10" ry="10" style="stroke:#181818;stroke-width:1;"/><path d="M753.875,551.1406 L753.875,552.9063 L756.9375,552.9063 L756.9375,552.25 Q756.9375,551.8281 757.0938,551.6406 Q757.2656,551.4531 757.5313,551.4531 Q757.7969,551.4531 757.9688,551.6406 Q758.1406,551.8281 758.1406,552.25 L758.1406,554.1094 L752.4844,554.1094 Q752.0469,554.1094 751.8594,553.9531 Q751.6719,553.7813 751.6719,553.5 Q751.6719,553.2344 751.8594,553.0781 Q752.0469,552.9063 752.4844,552.9063 L752.6719,552.9063 L752.6719,548.2031 L752.4844,548.2031 Q752.0469,548.2031 751.8594,548.0469 Q751.6719,547.875 751.6719,547.6094 Q751.6719,547.3281 751.8594,547.1719 Q752.0469,547 752.4844,547 L757.875,547 L757.875,548.8281 Q757.875,549.2656 757.7031,549.4531 Q757.5469,549.625 757.2656,549.625 Q757,549.625 756.8281,549.4531 Q756.6719,549.2656 756.6719,548.8281 L756.6719,548.2031 L753.875,548.2031 L753.875,549.9375 L754.9219,549.9375 Q754.9219,549.4688 755.0156,549.3438 Q755.1875,549.0469 755.5313,549.0469 Q755.7969,549.0469 755.9531,549.2344 Q756.125,549.4219 756.125,549.8594 L756.125,551.2344 Q756.125,551.625 756.0313,551.7656 Q755.8438,552.0469 755.5313,552.0469 Q755.1875,552.0469 755.0156,551.75 Q754.9219,551.625 754.9219,551.1406 L753.875,551.1406 Z " fill="#000000"/><text fill="#000000" font-family="sans-serif" font-size="12" lengthAdjust="spacing" textLength="98.0625" x="767" y="555.0195">ResolutionReason</text><line style="stroke:#181818;stroke-width:0.5;" x1="741" x2="867.0625" y1="565.1094" y2="565.1094"/><text fill="#000000" font-family="sans-serif" font-size="12" lengthAdjust="spacing" textLength="81.0645" x="746" y="581.5664">+DangerEnded</text><text fill="#000000" font-family="sans-serif" font-size="12" lengthAdjust="spacing" textLength="67.6875" x="746" y="596.6602">+FalseAlarm</text><text fill="#000000" font-family="sans-serif" font-size="12" lengthAdjust="spacing" textLength="95.0332" x="746" y="611.7539">+HistoricalRecord</text></g><!--class B_ReportStatus--><g class="entity" data-qualified-name="B_ReportStatus" data-source-line="84" id="ent0010"><rect fill="#F1F1F1" height="68.1875" rx="2.5" ry="2.5" style="stroke:#181818;stroke-width:0.5;" width="100.0371" x="7" y="810.1094"/><ellipse cx="21" cy="825.1094" fill="#EB937F" rx="10" ry="10" style="stroke:#181818;stroke-width:1;"/><path d="M20.875,826.1406 L20.875,827.9063 L23.9375,827.9063 L23.9375,827.25 Q23.9375,826.8281 24.0938,826.6406 Q24.2656,826.4531 24.5313,826.4531 Q24.7969,826.4531 24.9688,826.6406 Q25.1406,826.8281 25.1406,827.25 L25.1406,829.1094 L19.4844,829.1094 Q19.0469,829.1094 18.8594,828.9531 Q18.6719,828.7813 18.6719,828.5 Q18.6719,828.2344 18.8594,828.0781 Q19.0469,827.9063 19.4844,827.9063 L19.6719,827.9063 L19.6719,823.2031 L19.4844,823.2031 Q19.0469,823.2031 18.8594,823.0469 Q18.6719,822.875 18.6719,822.6094 Q18.6719,822.3281 18.8594,822.1719 Q19.0469,822 19.4844,822 L24.875,822 L24.875,823.8281 Q24.875,824.2656 24.7031,824.4531 Q24.5469,824.625 24.2656,824.625 Q24,824.625 23.8281,824.4531 Q23.6719,824.2656 23.6719,823.8281 L23.6719,823.2031 L20.875,823.2031 L20.875,824.9375 L21.9219,824.9375 Q21.9219,824.4688 22.0156,824.3438 Q22.1875,824.0469 22.5313,824.0469 Q22.7969,824.0469 22.9531,824.2344 Q23.125,824.4219 23.125,824.8594 L23.125,826.2344 Q23.125,826.625 23.0313,826.7656 Q22.8438,827.0469 22.5313,827.0469 Q22.1875,827.0469 22.0156,826.75 Q21.9219,826.625 21.9219,826.1406 L20.875,826.1406 Z " fill="#000000"/><text fill="#000000" font-family="sans-serif" font-size="12" lengthAdjust="spacing" textLength="70.0371" x="34" y="830.0195">ReportStatus</text><line style="stroke:#181818;stroke-width:0.5;" x1="8" x2="106.0371" y1="840.1094" y2="840.1094"/><text fill="#000000" font-family="sans-serif" font-size="12" lengthAdjust="spacing" textLength="51.0469" x="13" y="856.5664">+Pending</text><text fill="#000000" font-family="sans-serif" font-size="12" lengthAdjust="spacing" textLength="65.0391" x="13" y="871.6602">+Completed</text></g><!--class B_IncidentType--><g class="entity" data-qualified-name="B_IncidentType" data-source-line="88" id="ent0011"><rect fill="#F1F1F1" height="128.5625" rx="2.5" ry="2.5" style="stroke:#181818;stroke-width:0.5;" width="119.0625" x="142.5" y="779.6094"/><ellipse cx="165.66" cy="794.6094" fill="#EB937F" rx="10" ry="10" style="stroke:#181818;stroke-width:1;"/><path d="M165.535,795.6406 L165.535,797.4063 L168.5975,797.4063 L168.5975,796.75 Q168.5975,796.3281 168.7537,796.1406 Q168.9256,795.9531 169.1912,795.9531 Q169.4568,795.9531 169.6287,796.1406 Q169.8006,796.3281 169.8006,796.75 L169.8006,798.6094 L164.1443,798.6094 Q163.7068,798.6094 163.5193,798.4531 Q163.3318,798.2813 163.3318,798 Q163.3318,797.7344 163.5193,797.5781 Q163.7068,797.4063 164.1443,797.4063 L164.3318,797.4063 L164.3318,792.7031 L164.1443,792.7031 Q163.7068,792.7031 163.5193,792.5469 Q163.3318,792.375 163.3318,792.1094 Q163.3318,791.8281 163.5193,791.6719 Q163.7068,791.5 164.1443,791.5 L169.535,791.5 L169.535,793.3281 Q169.535,793.7656 169.3631,793.9531 Q169.2068,794.125 168.9256,794.125 Q168.66,794.125 168.4881,793.9531 Q168.3318,793.7656 168.3318,793.3281 L168.3318,792.7031 L165.535,792.7031 L165.535,794.4375 L166.5818,794.4375 Q166.5818,793.9688 166.6756,793.8438 Q166.8475,793.5469 167.1912,793.5469 Q167.4568,793.5469 167.6131,793.7344 Q167.785,793.9219 167.785,794.3594 L167.785,795.7344 Q167.785,796.125 167.6912,796.2656 Q167.5037,796.5469 167.1912,796.5469 Q166.8475,796.5469 166.6756,796.25 Q166.5818,796.125 166.5818,795.6406 L165.535,795.6406 Z " fill="#000000"/><text fill="#000000" font-family="sans-serif" font-size="12" lengthAdjust="spacing" textLength="68.707" x="180.6955" y="799.5195">IncidentType</text><line style="stroke:#181818;stroke-width:0.5;" x1="143.5" x2="260.5625" y1="809.6094" y2="809.6094"/><text fill="#000000" font-family="sans-serif" font-size="12" lengthAdjust="spacing" textLength="52.3652" x="148.5" y="826.0664">+Robbery</text><text fill="#000000" font-family="sans-serif" font-size="12" lengthAdjust="spacing" textLength="107.0625" x="148.5" y="841.1602">+AttemptedRobbery</text><text fill="#000000" font-family="sans-serif" font-size="12" lengthAdjust="spacing" textLength="46.3594" x="148.5" y="856.2539">+Assault</text><text fill="#000000" font-family="sans-serif" font-size="12" lengthAdjust="spacing" textLength="54.3633" x="148.5" y="871.3477">+Extortion</text><text fill="#000000" font-family="sans-serif" font-size="12" lengthAdjust="spacing" textLength="103.043" x="148.5" y="886.4414">+SuspiciousActivity</text><text fill="#000000" font-family="sans-serif" font-size="12" lengthAdjust="spacing" textLength="37.0195" x="148.5" y="901.5352">+Other</text></g><!--class B_DeliveryStatus--><g class="entity" data-qualified-name="B_DeliveryStatus" data-source-line="96" id="ent0012"><rect fill="#F1F1F1" height="83.2813" rx="2.5" ry="2.5" style="stroke:#181818;stroke-width:0.5;" width="107.3613" x="334.5" y="802.6094"/><ellipse cx="348.5" cy="817.6094" fill="#EB937F" rx="10" ry="10" style="stroke:#181818;stroke-width:1;"/><path d="M348.375,818.6406 L348.375,820.4063 L351.4375,820.4063 L351.4375,819.75 Q351.4375,819.3281 351.5938,819.1406 Q351.7656,818.9531 352.0313,818.9531 Q352.2969,818.9531 352.4688,819.1406 Q352.6406,819.3281 352.6406,819.75 L352.6406,821.6094 L346.9844,821.6094 Q346.5469,821.6094 346.3594,821.4531 Q346.1719,821.2813 346.1719,821 Q346.1719,820.7344 346.3594,820.5781 Q346.5469,820.4063 346.9844,820.4063 L347.1719,820.4063 L347.1719,815.7031 L346.9844,815.7031 Q346.5469,815.7031 346.3594,815.5469 Q346.1719,815.375 346.1719,815.1094 Q346.1719,814.8281 346.3594,814.6719 Q346.5469,814.5 346.9844,814.5 L352.375,814.5 L352.375,816.3281 Q352.375,816.7656 352.2031,816.9531 Q352.0469,817.125 351.7656,817.125 Q351.5,817.125 351.3281,816.9531 Q351.1719,816.7656 351.1719,816.3281 L351.1719,815.7031 L348.375,815.7031 L348.375,817.4375 L349.4219,817.4375 Q349.4219,816.9688 349.5156,816.8438 Q349.6875,816.5469 350.0313,816.5469 Q350.2969,816.5469 350.4531,816.7344 Q350.625,816.9219 350.625,817.3594 L350.625,818.7344 Q350.625,819.125 350.5313,819.2656 Q350.3438,819.5469 350.0313,819.5469 Q349.6875,819.5469 349.5156,819.25 Q349.4219,819.125 349.4219,818.6406 L348.375,818.6406 Z " fill="#000000"/><text fill="#000000" font-family="sans-serif" font-size="12" lengthAdjust="spacing" textLength="77.3613" x="361.5" y="822.5195">DeliveryStatus</text><line style="stroke:#181818;stroke-width:0.5;" x1="335.5" x2="440.8613" y1="832.6094" y2="832.6094"/><text fill="#000000" font-family="sans-serif" font-size="12" lengthAdjust="spacing" textLength="51.0469" x="340.5" y="849.0664">+Pending</text><text fill="#000000" font-family="sans-serif" font-size="12" lengthAdjust="spacing" textLength="31.6934" x="340.5" y="864.1602">+Sent</text><text fill="#000000" font-family="sans-serif" font-size="12" lengthAdjust="spacing" textLength="39.6914" x="340.5" y="879.2539">+Failed</text></g><!--link B_Alert to B_AlertKind--><g class="link" data-entity-1="ent0002" data-entity-2="ent0007" data-link-type="dependency" data-source-line="101" id="lnk13"><path codeLine="101" d="M541,373.6294 C541,433.0794 541,489.3294 541,528.7394" fill="none" id="B_Alert-to-B_AlertKind" style="stroke:#181818;stroke-width:1;stroke-dasharray:7,7;"/><polygon fill="#181818" points="541,534.7394,545,525.7394,541,529.7394,537,525.7394,541,534.7394" style="stroke:#181818;stroke-width:1;"/><text fill="#000000" font-family="sans-serif" font-size="12" lengthAdjust="spacing" textLength="22.6816" x="542" y="417.0664">type</text></g><!--link B_Alert to B_AlertStatus--><g class="link" data-entity-1="ent0002" data-entity-2="ent0008" data-link-type="dependency" data-source-line="102" id="lnk14"><path codeLine="102" d="M594.15,373.6294 C614.83,437.0694 634.689,497.9953 647.299,536.6453" fill="none" id="B_Alert-to-B_AlertStatus" style="stroke:#181818;stroke-width:1;stroke-dasharray:7,7;"/><polygon fill="#181818" points="649.16,542.3494,650.1712,532.5526,647.6091,537.596,642.5657,535.0339,649.16,542.3494" style="stroke:#181818;stroke-width:1;"/><text fill="#000000" font-family="sans-serif" font-size="12" lengthAdjust="spacing" textLength="22.6816" x="609" y="417.0664">type</text></g><!--link B_Alert to B_ResolutionReason--><g class="link" data-entity-1="ent0002" data-entity-2="ent0009" data-link-type="dependency" data-source-line="103" id="lnk15"><path codeLine="103" d="M663.98,373.6794 C696.15,416.3294 722,450.6094 722,450.6094 C722,450.6094 750.1384,493.5129 774.0884,530.0129" fill="none" id="B_Alert-to-B_ResolutionReason" style="stroke:#181818;stroke-width:1;stroke-dasharray:7,7;"/><polygon fill="#181818" points="777.38,535.0294,775.7869,525.3102,774.637,530.849,769.0982,529.6991,777.38,535.0294" style="stroke:#181818;stroke-width:1;"/><text fill="#000000" font-family="sans-serif" font-size="12" lengthAdjust="spacing" textLength="22.6816" x="697" y="417.0664">type</text></g><!--link B_IncidentReport to B_ReportStatus--><g class="link" data-entity-1="ent0003" data-entity-2="ent0010" data-link-type="dependency" data-source-line="104" id="lnk16"><path codeLine="104" d="M131.05,657.6294 C110.69,708.6294 87.604,766.4468 72.474,804.3568" fill="none" id="B_IncidentReport-to-B_ReportStatus" style="stroke:#181818;stroke-width:1;stroke-dasharray:7,7;"/><polygon fill="#181818" points="70.25,809.9294,77.3011,803.0532,72.1034,805.2856,69.871,800.0878,70.25,809.9294" style="stroke:#181818;stroke-width:1;"/><text fill="#000000" font-family="sans-serif" font-size="12" lengthAdjust="spacing" textLength="22.6816" x="102" y="746.0664">type</text></g><!--link B_IncidentReport to B_IncidentType--><g class="link" data-entity-1="ent0003" data-entity-2="ent0011" data-link-type="dependency" data-source-line="105" id="lnk17"><path codeLine="105" d="M174.75,657.6294 C180.47,696.5594 186.3776,736.7831 191.7476,773.3231" fill="none" id="B_IncidentReport-to-B_IncidentType" style="stroke:#181818;stroke-width:1;stroke-dasharray:7,7;"/><polygon fill="#181818" points="192.62,779.2594,195.2689,769.7734,191.893,774.3125,187.3539,770.9366,192.62,779.2594" style="stroke:#181818;stroke-width:1;"/><text fill="#000000" font-family="sans-serif" font-size="12" lengthAdjust="spacing" textLength="22.6816" x="189" y="746.0664">type</text></g><!--link B_AlertDelivery to B_DeliveryStatus--><g class="link" data-entity-1="ent0006" data-entity-2="ent0012" data-link-type="dependency" data-source-line="106" id="lnk18"><path codeLine="106" d="M388,702.9694 C388,738.9594 388,769.6694 388,796.4794" fill="none" id="B_AlertDelivery-to-B_DeliveryStatus" style="stroke:#181818;stroke-width:1;stroke-dasharray:7,7;"/><polygon fill="#181818" points="388,802.4794,392,793.4794,388,797.4794,384,793.4794,388,802.4794" style="stroke:#181818;stroke-width:1;"/><text fill="#000000" font-family="sans-serif" font-size="12" lengthAdjust="spacing" textLength="22.6816" x="389" y="746.0664">type</text></g><!--reverse link B_Alert to B_IncidentReport--><g class="link" data-entity-1="ent0002" data-entity-2="ent0003" data-link-type="composition" data-source-line="107" id="lnk19"><path codeLine="107" d="M389.3205,356.8075 C333.8305,410.2975 292,450.6094 292,450.6094 C292,450.6094 270.91,471.0394 245.79,495.3794" fill="none" id="B_Alert-backto-B_IncidentReport" style="stroke:#181818;stroke-width:1;"/><polygon fill="#181818" points="397.96,348.4794,390.8642,349.7636,389.3205,356.8075,396.4163,355.5233,397.96,348.4794" style="stroke:#181818;stroke-width:1;"/></g><!--link B_Alert to B_AlertDelivery--><g class="link" data-entity-1="ent0002" data-entity-2="ent0006" data-link-type="association" data-source-line="108" id="lnk20"><path codeLine="108" d="M472.67,373.6294 C461.84,399.4594 450.79,425.8194 440.4,450.6094" fill="none" id="B_Alert-B_AlertDelivery" style="stroke:#181818;stroke-width:1;"/></g><?plantuml-src bLNTRjCm5BxlKrYxAj1Dm6Kr3RLh9ohsftRZ5hd9QMhDiOFjT0I4n4FmX3m9vpXDugJP1dVnTqw-y_Vvs3u8bN73KsQtFDQFGYLimwM5WQqjaUJMJfmpOfqxM4HQhSHtO6y3bun73po1bIiaC0EHuogH8OSK2boH0SkqBEWGs6BOy5ow2wtSDK-1hRYoAp1Yq-_ZWxzxFzYA61YacIjO2kaQZ1quuJ3-GbataM0Scs9Qe6BsvzTlLYBqbUeOf4PA5kjKAA47la9sv5sE6BTi-gLqFpsT98c1X3iuEsC_1eozMSHZ9fIZpsbkiH9h0sYU2kSWdXRt5ao0dqi1oYtXQmxM4MwndIeXqoUXyEpZqIT1AyTTRlTWUI3uacE1UGnZp3qIAPSUr2evH6-YA3S6ueaRinbcVoTIkDbiBFXi9f4JEqHxp1_8lWIhvUvvS-w4LalWLginwoBUxJEEH92rwe61_fXalC_YfurLlaEb7r-DsKwBE4XpQ7pC4MjRptMQIN2mX4mRDoJrZR15DZ8YeqpHTQ4Y517DXLm6FoiXjF6z8jeWIcEkS1n5Zoxys89pzUSTfj04fPFlqwp9ATH59O8oNgE2ggwdfbFP3ojkTQWkzbexiH4H9uzR0nime2BO5zrlVE5UTBI_X0Z43kOfc0J_BiPihRKCB4YymuRWLs3YiSZj5TPXR4Fyd4XAun2gC2EMrRmZPZpVGV5rKkUuMNXKpReB_r_1jCN2ITvkjMe1_t0JXWf9i0JwzI1hBx0PIApC5E72gh0NykqA5ESWCbfGdKBcrBw3QxpbIe7iaseLlX4hFXkqefiHhf3noRN2dzBq9RTkRemsLLIFNd7pG7oTjK0mSVN05rn8Y8T0L4rNGUNflgcqWSE6qhbitorN8l8VjQhez55OfmtU4DacAbiGKfL8IUON6eIhjlwxkqht55suv9dXEmjchcBm9LxGopsHtAJjr72-seGXcerIqpVGlbvyE2kvLXkdPWXtM6Sz4bGoBFKQN-KYa0748MOjFUbUPzymKQhDAoItcOY4pgtl4gvO_w2vBPWwVbje-mpQu44Lf9IoIQG1fAeU-PEJizQunumsPvzvpzphS32WsglpS5JkGSEVTsrrjXsxlk-bPwS3dJnV7nyVF6ErqTjQd8E_?></g></svg>