<?xml version="1.0" encoding="us-ascii" standalone="no"?><svg xmlns="http://www.w3.org/2000/svg" xmlns:xlink="http://www.w3.org/1999/xlink" contentStyleType="text/css" height="1285px" preserveAspectRatio="none" style="width:1707px;height:1285px;background:#FFFFFF;" version="1.1" viewBox="0 0 1707 1285" width="1707px" zoomAndPan="magnify"><defs/><g><text fill="#000000" font-family="sans-serif" font-size="14" font-weight="bold" lengthAdjust="spacing" textLength="279" x="707" y="24.5332">InstAlert - Frontend Class Diagram - IAM</text><!--cluster iamContext--><g id="cluster_iamContext"><rect fill="#FFFFFF" height="1234" rx="2.5" ry="2.5" style="stroke:#55718B;stroke-width:1.5;" width="1694" x="7" y="45.6094"/><text fill="#000000" font-family="sans-serif" font-size="12" font-weight="bold" lengthAdjust="spacing" textLength="21" x="843.5" y="60.0664">IAM</text></g><!--cluster iamDomain--><g id="cluster_iamDomain"><rect fill="#FFFFFF" height="349" rx="2.5" ry="2.5" style="stroke:#55718B;stroke-width:1.5;" width="565.5" x="1079" y="628.6094"/><text fill="#000000" font-family="sans-serif" font-size="12" font-weight="bold" lengthAdjust="spacing" textLength="43" x="1340.25" y="643.0664">Domain</text></g><!--cluster iamApplication--><g id="cluster_iamApplication"><rect fill="#FFFFFF" height="592" rx="2.5" ry="2.5" style="stroke:#55718B;stroke-width:1.5;" width="545" x="486" y="663.6094"/><text fill="#000000" font-family="sans-serif" font-size="12" font-weight="bold" lengthAdjust="spacing" textLength="63" x="727" y="678.0664">Application</text></g><!--cluster iamInfrastructure--><g id="cluster_iamInfrastructure"><rect fill="#FFFFFF" height="517" rx="2.5" ry="2.5" style="stroke:#55718B;stroke-width:1.5;" width="919" x="758" y="87.6094"/><text fill="#000000" font-family="sans-serif" font-size="12" font-weight="bold" lengthAdjust="spacing" textLength="79" x="1178" y="102.0664">Infrastructure</text></g><!--cluster iamPresentation--><g id="cluster_iamPresentation"><rect fill="#FFFFFF" height="379" rx="2.5" ry="2.5" style="stroke:#55718B;stroke-width:1.5;" width="688.5" x="31" y="260.6094"/><text fill="#000000" font-family="sans-serif" font-size="12" font-weight="bold" lengthAdjust="spacing" textLength="73" x="338.75" y="275.0664">Presentation</text></g><!--class iamUser--><g id="elem_iamUser"><rect codeLine="16" fill="#F8FAFC" height="161.8438" id="iamUser" rx="2.5" ry="2.5" style="stroke:#58728B;stroke-width:0.5;" width="333" x="1095" y="662.6094"/><ellipse cx="1237.5" cy="682.7031" fill="#ADD1B2" rx="10" ry="10" style="stroke:#181818;stroke-width:1.0;"/><path d="M1238.9844,679.9063 Q1239.0938,679.75 1239.2188,679.6719 Q1239.3594,679.5938 1239.5156,679.5938 Q1239.7813,679.5938 1239.9375,679.7813 Q1240.1094,679.9688 1240.1094,680.3906 L1240.1094,681.4219 Q1240.1094,681.8438 1239.9375,682.0313 Q1239.7813,682.2188 1239.5156,682.2188 Q1239.2656,682.2188 1239.125,682.0781 Q1238.9844,681.9531 1238.9063,681.5781 Q1238.875,681.3281 1238.75,681.2031 Q1238.5,680.9375 1238.0625,680.7813 Q1237.6406,680.625 1237.2031,680.625 Q1236.6719,680.625 1236.2188,680.8594 Q1235.7656,681.0938 1235.4219,681.625 Q1235.0781,682.1406 1235.0781,682.875 L1235.0781,683.6563 Q1235.0781,684.5156 1235.7031,685.0938 Q1236.3438,685.6719 1237.4531,685.6719 Q1238.125,685.6719 1238.5938,685.5 Q1238.8594,685.3906 1239.1563,685.0781 Q1239.3438,684.8906 1239.4531,684.8438 Q1239.5625,684.7813 1239.6875,684.7813 Q1239.9375,684.7813 1240.1094,684.9688 Q1240.2969,685.1406 1240.2969,685.3906 Q1240.2969,685.6406 1240.0469,685.9219 Q1239.6875,686.3281 1239.125,686.5625 Q1238.375,686.875 1237.4688,686.875 Q1236.3906,686.875 1235.5469,686.4375 Q1234.8438,686.0938 1234.3594,685.3281 Q1233.875,684.5625 1233.875,683.6719 L1233.875,682.8594 Q1233.875,681.9219 1234.3125,681.1094 Q1234.75,680.2969 1235.5156,679.8594 Q1236.2969,679.4219 1237.1563,679.4219 Q1237.6875,679.4219 1238.1406,679.5469 Q1238.5938,679.6563 1238.9844,679.9063 Z " fill="#000000"/><text fill="#000000" font-family="sans-serif" font-size="12" font-style="italic" lengthAdjust="spacing" textLength="44" x="1254.5" y="680.0664">&#171;Entity&#187;</text><text fill="#000000" font-family="sans-serif" font-size="12" lengthAdjust="spacing" textLength="27" x="1263" y="695.1602">User</text><line style="stroke:#58728B;stroke-width:0.5;" x1="1096" x2="1427" y1="702.7969" y2="702.7969"/><text fill="#000000" font-family="sans-serif" font-size="12" lengthAdjust="spacing" textLength="55" x="1101" y="719.2539">+id: String</text><text fill="#000000" font-family="sans-serif" font-size="12" lengthAdjust="spacing" textLength="99" x="1101" y="734.3477">+firstName: String</text><text fill="#000000" font-family="sans-serif" font-size="12" lengthAdjust="spacing" textLength="99" x="1101" y="749.4414">+lastName: String</text><text fill="#000000" font-family="sans-serif" font-size="12" lengthAdjust="spacing" textLength="76" x="1101" y="764.5352">+email: String</text><text fill="#000000" font-family="sans-serif" font-size="12" lengthAdjust="spacing" textLength="80" x="1101" y="779.6289">+phone: String</text><text fill="#000000" font-family="sans-serif" font-size="12" lengthAdjust="spacing" textLength="125" x="1101" y="794.7227">+status: AccountStatus</text><line style="stroke:#58728B;stroke-width:0.5;" x1="1096" x2="1427" y1="801.3594" y2="801.3594"/><text fill="#000000" font-family="sans-serif" font-size="12" lengthAdjust="spacing" textLength="321" x="1101" y="817.8164">+updatePersonalData(firstName, lastName, email, phone)</text></g><!--class accountStatus--><g id="elem_accountStatus"><rect codeLine="25" fill="#F8FAFC" height="91.2813" id="accountStatus" rx="2.5" ry="2.5" style="stroke:#58728B;stroke-width:0.5;" width="108" x="1520.5" y="698.1094"/><ellipse cx="1534.5" cy="713.1094" fill="#EB937F" rx="10" ry="10" style="stroke:#181818;stroke-width:1.0;"/><path d="M1534.375,714.1406 L1534.375,715.9063 L1537.4375,715.9063 L1537.4375,715.25 Q1537.4375,714.8281 1537.5938,714.6406 Q1537.7656,714.4531 1538.0313,714.4531 Q1538.2969,714.4531 1538.4688,714.6406 Q1538.6406,714.8281 1538.6406,715.25 L1538.6406,717.1094 L1532.9844,717.1094 Q1532.5469,717.1094 1532.3594,716.9531 Q1532.1719,716.7813 1532.1719,716.5 Q1532.1719,716.2344 1532.3594,716.0781 Q1532.5469,715.9063 1532.9844,715.9063 L1533.1719,715.9063 L1533.1719,711.2031 L1532.9844,711.2031 Q1532.5469,711.2031 1532.3594,711.0469 Q1532.1719,710.875 1532.1719,710.6094 Q1532.1719,710.3281 1532.3594,710.1719 Q1532.5469,710 1532.9844,710 L1538.375,710 L1538.375,711.8281 Q1538.375,712.2656 1538.2031,712.4531 Q1538.0469,712.625 1537.7656,712.625 Q1537.5,712.625 1537.3281,712.4531 Q1537.1719,712.2656 1537.1719,711.8281 L1537.1719,711.2031 L1534.375,711.2031 L1534.375,712.9375 L1535.4219,712.9375 Q1535.4219,712.4688 1535.5156,712.3438 Q1535.6875,712.0469 1536.0313,712.0469 Q1536.2969,712.0469 1536.4531,712.2344 Q1536.625,712.4219 1536.625,712.8594 L1536.625,714.2344 Q1536.625,714.625 1536.5313,714.7656 Q1536.3438,715.0469 1536.0313,715.0469 Q1535.6875,715.0469 1535.5156,714.75 Q1535.4219,714.625 1535.4219,714.1406 L1534.375,714.1406 Z " fill="#000000"/><text fill="#000000" font-family="sans-serif" font-size="12" lengthAdjust="spacing" textLength="78" x="1547.5" y="718.0195">AccountStatus</text><line style="stroke:#58728B;stroke-width:0.5;" x1="1521.5" x2="1627.5" y1="728.1094" y2="728.1094"/><text fill="#000000" font-family="sans-serif" font-size="12" lengthAdjust="spacing" textLength="55" x="1526.5" y="744.5664">PENDING</text><text fill="#000000" font-family="sans-serif" font-size="12" lengthAdjust="spacing" textLength="41" x="1526.5" y="759.6602">ACTIVE</text><text fill="#000000" font-family="sans-serif" font-size="12" lengthAdjust="spacing" textLength="53" x="1526.5" y="774.7539">INACTIVE</text><line style="stroke:#58728B;stroke-width:0.5;" x1="1521.5" x2="1627.5" y1="781.3906" y2="781.3906"/></g><!--class authenticationSession--><g id="elem_authenticationSession"><rect codeLine="30" fill="#F8FAFC" height="101.4688" id="authenticationSession" rx="2.5" ry="2.5" style="stroke:#58728B;stroke-width:0.5;" width="153" x="1185" y="860.1094"/><ellipse cx="1199" cy="880.2031" fill="#ADD1B2" rx="10" ry="10" style="stroke:#181818;stroke-width:1.0;"/><path d="M1200.4844,877.4063 Q1200.5938,877.25 1200.7188,877.1719 Q1200.8594,877.0938 1201.0156,877.0938 Q1201.2813,877.0938 1201.4375,877.2813 Q1201.6094,877.4688 1201.6094,877.8906 L1201.6094,878.9219 Q1201.6094,879.3438 1201.4375,879.5313 Q1201.2813,879.7188 1201.0156,879.7188 Q1200.7656,879.7188 1200.625,879.5781 Q1200.4844,879.4531 1200.4063,879.0781 Q1200.375,878.8281 1200.25,878.7031 Q1200,878.4375 1199.5625,878.2813 Q1199.1406,878.125 1198.7031,878.125 Q1198.1719,878.125 1197.7188,878.3594 Q1197.2656,878.5938 1196.9219,879.125 Q1196.5781,879.6406 1196.5781,880.375 L1196.5781,881.1563 Q1196.5781,882.0156 1197.2031,882.5938 Q1197.8438,883.1719 1198.9531,883.1719 Q1199.625,883.1719 1200.0938,883 Q1200.3594,882.8906 1200.6563,882.5781 Q1200.8438,882.3906 1200.9531,882.3438 Q1201.0625,882.2813 1201.1875,882.2813 Q1201.4375,882.2813 1201.6094,882.4688 Q1201.7969,882.6406 1201.7969,882.8906 Q1201.7969,883.1406 1201.5469,883.4219 Q1201.1875,883.8281 1200.625,884.0625 Q1199.875,884.375 1198.9688,884.375 Q1197.8906,884.375 1197.0469,883.9375 Q1196.3438,883.5938 1195.8594,882.8281 Q1195.375,882.0625 1195.375,881.1719 L1195.375,880.3594 Q1195.375,879.4219 1195.8125,878.6094 Q1196.25,877.7969 1197.0156,877.3594 Q1197.7969,876.9219 1198.6563,876.9219 Q1199.1875,876.9219 1199.6406,877.0469 Q1200.0938,877.1563 1200.4844,877.4063 Z " fill="#000000"/><text fill="#000000" font-family="sans-serif" font-size="12" font-style="italic" lengthAdjust="spacing" textLength="44" x="1251.5" y="877.5664">&#171;Entity&#187;</text><text fill="#000000" font-family="sans-serif" font-size="12" lengthAdjust="spacing" textLength="123" x="1212" y="892.6602">AuthenticationSession</text><line style="stroke:#58728B;stroke-width:0.5;" x1="1186" x2="1337" y1="900.2969" y2="900.2969"/><text fill="#000000" font-family="sans-serif" font-size="12" lengthAdjust="spacing" textLength="119" x="1191" y="916.7539">+accessToken: String</text><text fill="#000000" font-family="sans-serif" font-size="12" lengthAdjust="spacing" textLength="117" x="1191" y="931.8477">+expiresAt: DateTime</text><line style="stroke:#58728B;stroke-width:0.5;" x1="1186" x2="1337" y1="938.4844" y2="938.4844"/><text fill="#000000" font-family="sans-serif" font-size="12" lengthAdjust="spacing" textLength="118" x="1191" y="954.9414">+isExpired(): Boolean</text></g><!--class iamStore--><g id="elem_iamStore"><rect codeLine="37" fill="#F8FAFC" height="207.125" id="iamStore" rx="2.5" ry="2.5" style="stroke:#58728B;stroke-width:0.5;" width="212" x="502" y="698.1094"/><ellipse cx="569" cy="718.2031" fill="#ADD1B2" rx="10" ry="10" style="stroke:#181818;stroke-width:1.0;"/><path d="M570.4844,715.4063 Q570.5938,715.25 570.7188,715.1719 Q570.8594,715.0938 571.0156,715.0938 Q571.2813,715.0938 571.4375,715.2813 Q571.6094,715.4688 571.6094,715.8906 L571.6094,716.9219 Q571.6094,717.3438 571.4375,717.5313 Q571.2813,717.7188 571.0156,717.7188 Q570.7656,717.7188 570.625,717.5781 Q570.4844,717.4531 570.4063,717.0781 Q570.375,716.8281 570.25,716.7031 Q570,716.4375 569.5625,716.2813 Q569.1406,716.125 568.7031,716.125 Q568.1719,716.125 567.7188,716.3594 Q567.2656,716.5938 566.9219,717.125 Q566.5781,717.6406 566.5781,718.375 L566.5781,719.1563 Q566.5781,720.0156 567.2031,720.5938 Q567.8438,721.1719 568.9531,721.1719 Q569.625,721.1719 570.0938,721 Q570.3594,720.8906 570.6563,720.5781 Q570.8438,720.3906 570.9531,720.3438 Q571.0625,720.2813 571.1875,720.2813 Q571.4375,720.2813 571.6094,720.4688 Q571.7969,720.6406 571.7969,720.8906 Q571.7969,721.1406 571.5469,721.4219 Q571.1875,721.8281 570.625,722.0625 Q569.875,722.375 568.9688,722.375 Q567.8906,722.375 567.0469,721.9375 Q566.3438,721.5938 565.8594,720.8281 Q565.375,720.0625 565.375,719.1719 L565.375,718.3594 Q565.375,717.4219 565.8125,716.6094 Q566.25,715.7969 567.0156,715.3594 Q567.7969,714.9219 568.6563,714.9219 Q569.1875,714.9219 569.6406,715.0469 Q570.0938,715.1563 570.4844,715.4063 Z " fill="#000000"/><text fill="#000000" font-family="sans-serif" font-size="12" font-style="italic" lengthAdjust="spacing" textLength="74" x="586" y="715.5664">&#171;Pinia Store&#187;</text><text fill="#000000" font-family="sans-serif" font-size="12" lengthAdjust="spacing" textLength="50" x="598" y="730.6602">IamStore</text><line style="stroke:#58728B;stroke-width:0.5;" x1="503" x2="713" y1="738.2969" y2="738.2969"/><text fill="#000000" font-family="sans-serif" font-size="12" lengthAdjust="spacing" textLength="105" x="508" y="754.7539">+currentUser: User</text><text fill="#000000" font-family="sans-serif" font-size="12" lengthAdjust="spacing" textLength="181" x="508" y="769.8477">+session: AuthenticationSession</text><text fill="#000000" font-family="sans-serif" font-size="12" lengthAdjust="spacing" textLength="143" x="508" y="784.9414">+isAuthenticated: Boolean</text><line style="stroke:#58728B;stroke-width:0.5;" x1="503" x2="713" y1="791.5781" y2="791.5781"/><text fill="#000000" font-family="sans-serif" font-size="12" lengthAdjust="spacing" textLength="105" x="508" y="808.0352">+signIn(command)</text><text fill="#000000" font-family="sans-serif" font-size="12" lengthAdjust="spacing" textLength="111" x="508" y="823.1289">+signUp(command)</text><text fill="#000000" font-family="sans-serif" font-size="12" lengthAdjust="spacing" textLength="200" x="508" y="838.2227">+completeInvitedAccount(command)</text><text fill="#000000" font-family="sans-serif" font-size="12" lengthAdjust="spacing" textLength="107" x="508" y="853.3164">+loadCurrentUser()</text><text fill="#000000" font-family="sans-serif" font-size="12" lengthAdjust="spacing" textLength="144" x="508" y="868.4102">+updateProfile(command)</text><text fill="#000000" font-family="sans-serif" font-size="12" lengthAdjust="spacing" textLength="100" x="508" y="883.5039">+restoreSession()</text><text fill="#000000" font-family="sans-serif" font-size="12" lengthAdjust="spacing" textLength="58" x="508" y="898.5977">+signOut()</text></g><!--class signInCommand--><g id="elem_signInCommand"><rect codeLine="49" fill="#F8FAFC" height="86.375" id="signInCommand" rx="2.5" ry="2.5" style="stroke:#58728B;stroke-width:0.5;" width="124" x="842.5" y="864.6094"/><ellipse cx="856.5" cy="884.7031" fill="#ADD1B2" rx="10" ry="10" style="stroke:#181818;stroke-width:1.0;"/><path d="M857.9844,881.9063 Q858.0938,881.75 858.2188,881.6719 Q858.3594,881.5938 858.5156,881.5938 Q858.7813,881.5938 858.9375,881.7813 Q859.1094,881.9688 859.1094,882.3906 L859.1094,883.4219 Q859.1094,883.8438 858.9375,884.0313 Q858.7813,884.2188 858.5156,884.2188 Q858.2656,884.2188 858.125,884.0781 Q857.9844,883.9531 857.9063,883.5781 Q857.875,883.3281 857.75,883.2031 Q857.5,882.9375 857.0625,882.7813 Q856.6406,882.625 856.2031,882.625 Q855.6719,882.625 855.2188,882.8594 Q854.7656,883.0938 854.4219,883.625 Q854.0781,884.1406 854.0781,884.875 L854.0781,885.6563 Q854.0781,886.5156 854.7031,887.0938 Q855.3438,887.6719 856.4531,887.6719 Q857.125,887.6719 857.5938,887.5 Q857.8594,887.3906 858.1563,887.0781 Q858.3438,886.8906 858.4531,886.8438 Q858.5625,886.7813 858.6875,886.7813 Q858.9375,886.7813 859.1094,886.9688 Q859.2969,887.1406 859.2969,887.3906 Q859.2969,887.6406 859.0469,887.9219 Q858.6875,888.3281 858.125,888.5625 Q857.375,888.875 856.4688,888.875 Q855.3906,888.875 854.5469,888.4375 Q853.8438,888.0938 853.3594,887.3281 Q852.875,886.5625 852.875,885.6719 L852.875,884.8594 Q852.875,883.9219 853.3125,883.1094 Q853.75,882.2969 854.5156,881.8594 Q855.2969,881.4219 856.1563,881.4219 Q856.6875,881.4219 857.1406,881.5469 Q857.5938,881.6563 857.9844,881.9063 Z " fill="#000000"/><text fill="#000000" font-family="sans-serif" font-size="12" font-style="italic" lengthAdjust="spacing" textLength="73" x="880" y="882.0664">&#171;Command&#187;</text><text fill="#000000" font-family="sans-serif" font-size="12" lengthAdjust="spacing" textLength="94" x="869.5" y="897.1602">SignInCommand</text><line style="stroke:#58728B;stroke-width:0.5;" x1="843.5" x2="965.5" y1="904.7969" y2="904.7969"/><text fill="#000000" font-family="sans-serif" font-size="12" lengthAdjust="spacing" textLength="76" x="848.5" y="921.2539">+email: String</text><text fill="#000000" font-family="sans-serif" font-size="12" lengthAdjust="spacing" textLength="100" x="848.5" y="936.3477">+password: String</text><line style="stroke:#58728B;stroke-width:0.5;" x1="843.5" x2="965.5" y1="942.9844" y2="942.9844"/></g><!--class signUpCommand--><g id="elem_signUpCommand"><rect codeLine="53" fill="#F8FAFC" height="131.6563" id="signUpCommand" rx="2.5" ry="2.5" style="stroke:#58728B;stroke-width:0.5;" width="130" x="839.5" y="697.6094"/><ellipse cx="853.5" cy="717.7031" fill="#ADD1B2" rx="10" ry="10" style="stroke:#181818;stroke-width:1.0;"/><path d="M854.9844,714.9063 Q855.0938,714.75 855.2188,714.6719 Q855.3594,714.5938 855.5156,714.5938 Q855.7813,714.5938 855.9375,714.7813 Q856.1094,714.9688 856.1094,715.3906 L856.1094,716.4219 Q856.1094,716.8438 855.9375,717.0313 Q855.7813,717.2188 855.5156,717.2188 Q855.2656,717.2188 855.125,717.0781 Q854.9844,716.9531 854.9063,716.5781 Q854.875,716.3281 854.75,716.2031 Q854.5,715.9375 854.0625,715.7813 Q853.6406,715.625 853.2031,715.625 Q852.6719,715.625 852.2188,715.8594 Q851.7656,716.0938 851.4219,716.625 Q851.0781,717.1406 851.0781,717.875 L851.0781,718.6563 Q851.0781,719.5156 851.7031,720.0938 Q852.3438,720.6719 853.4531,720.6719 Q854.125,720.6719 854.5938,720.5 Q854.8594,720.3906 855.1563,720.0781 Q855.3438,719.8906 855.4531,719.8438 Q855.5625,719.7813 855.6875,719.7813 Q855.9375,719.7813 856.1094,719.9688 Q856.2969,720.1406 856.2969,720.3906 Q856.2969,720.6406 856.0469,720.9219 Q855.6875,721.3281 855.125,721.5625 Q854.375,721.875 853.4688,721.875 Q852.3906,721.875 851.5469,721.4375 Q850.8438,721.0938 850.3594,720.3281 Q849.875,719.5625 849.875,718.6719 L849.875,717.8594 Q849.875,716.9219 850.3125,716.1094 Q850.75,715.2969 851.5156,714.8594 Q852.2969,714.4219 853.1563,714.4219 Q853.6875,714.4219 854.1406,714.5469 Q854.5938,714.6563 854.9844,714.9063 Z " fill="#000000"/><text fill="#000000" font-family="sans-serif" font-size="12" font-style="italic" lengthAdjust="spacing" textLength="73" x="880" y="715.0664">&#171;Command&#187;</text><text fill="#000000" font-family="sans-serif" font-size="12" lengthAdjust="spacing" textLength="100" x="866.5" y="730.1602">SignUpCommand</text><line style="stroke:#58728B;stroke-width:0.5;" x1="840.5" x2="968.5" y1="737.7969" y2="737.7969"/><text fill="#000000" font-family="sans-serif" font-size="12" lengthAdjust="spacing" textLength="99" x="845.5" y="754.2539">+firstName: String</text><text fill="#000000" font-family="sans-serif" font-size="12" lengthAdjust="spacing" textLength="99" x="845.5" y="769.3477">+lastName: String</text><text fill="#000000" font-family="sans-serif" font-size="12" lengthAdjust="spacing" textLength="76" x="845.5" y="784.4414">+email: String</text><text fill="#000000" font-family="sans-serif" font-size="12" lengthAdjust="spacing" textLength="80" x="845.5" y="799.5352">+phone: String</text><text fill="#000000" font-family="sans-serif" font-size="12" lengthAdjust="spacing" textLength="100" x="845.5" y="814.6289">+password: String</text><line style="stroke:#58728B;stroke-width:0.5;" x1="840.5" x2="968.5" y1="821.2656" y2="821.2656"/></g><!--class completeInvitedAccountCommand--><g id="elem_completeInvitedAccountCommand"><rect codeLine="60" fill="#F8FAFC" height="101.4688" id="completeInvitedAccountCommand" rx="2.5" ry="2.5" style="stroke:#58728B;stroke-width:0.5;" width="221" x="794" y="1138.1094"/><ellipse cx="808" cy="1158.2031" fill="#ADD1B2" rx="10" ry="10" style="stroke:#181818;stroke-width:1.0;"/><path d="M809.4844,1155.4063 Q809.5938,1155.25 809.7188,1155.1719 Q809.8594,1155.0938 810.0156,1155.0938 Q810.2813,1155.0938 810.4375,1155.2813 Q810.6094,1155.4688 810.6094,1155.8906 L810.6094,1156.9219 Q810.6094,1157.3438 810.4375,1157.5313 Q810.2813,1157.7188 810.0156,1157.7188 Q809.7656,1157.7188 809.625,1157.5781 Q809.4844,1157.4531 809.4063,1157.0781 Q809.375,1156.8281 809.25,1156.7031 Q809,1156.4375 808.5625,1156.2813 Q808.1406,1156.125 807.7031,1156.125 Q807.1719,1156.125 806.7188,1156.3594 Q806.2656,1156.5938 805.9219,1157.125 Q805.5781,1157.6406 805.5781,1158.375 L805.5781,1159.1563 Q805.5781,1160.0156 806.2031,1160.5938 Q806.8438,1161.1719 807.9531,1161.1719 Q808.625,1161.1719 809.0938,1161 Q809.3594,1160.8906 809.6563,1160.5781 Q809.8438,1160.3906 809.9531,1160.3438 Q810.0625,1160.2813 810.1875,1160.2813 Q810.4375,1160.2813 810.6094,1160.4688 Q810.7969,1160.6406 810.7969,1160.8906 Q810.7969,1161.1406 810.5469,1161.4219 Q810.1875,1161.8281 809.625,1162.0625 Q808.875,1162.375 807.9688,1162.375 Q806.8906,1162.375 806.0469,1161.9375 Q805.3438,1161.5938 804.8594,1160.8281 Q804.375,1160.0625 804.375,1159.1719 L804.375,1158.3594 Q804.375,1157.4219 804.8125,1156.6094 Q805.25,1155.7969 806.0156,1155.3594 Q806.7969,1154.9219 807.6563,1154.9219 Q808.1875,1154.9219 808.6406,1155.0469 Q809.0938,1155.1563 809.4844,1155.4063 Z " fill="#000000"/><text fill="#000000" font-family="sans-serif" font-size="12" font-style="italic" lengthAdjust="spacing" textLength="73" x="880" y="1155.5664">&#171;Command&#187;</text><text fill="#000000" font-family="sans-serif" font-size="12" lengthAdjust="spacing" textLength="191" x="821" y="1170.6602">CompleteInvitedAccountCommand</text><line style="stroke:#58728B;stroke-width:0.5;" x1="795" x2="1014" y1="1178.2969" y2="1178.2969"/><text fill="#000000" font-family="sans-serif" font-size="12" lengthAdjust="spacing" textLength="76" x="800" y="1194.7539">+email: String</text><text fill="#000000" font-family="sans-serif" font-size="12" lengthAdjust="spacing" textLength="156" x="800" y="1209.8477">+temporaryPassword: String</text><text fill="#000000" font-family="sans-serif" font-size="12" lengthAdjust="spacing" textLength="124" x="800" y="1224.9414">+newPassword: String</text><line style="stroke:#58728B;stroke-width:0.5;" x1="795" x2="1014" y1="1231.5781" y2="1231.5781"/></g><!--class profileUpdateCommand--><g id="elem_profileUpdateCommand"><rect codeLine="65" fill="#F8FAFC" height="116.5625" id="profileUpdateCommand" rx="2.5" ry="2.5" style="stroke:#58728B;stroke-width:0.5;" width="164" x="822.5" y="986.1094"/><ellipse cx="836.5" cy="1006.2031" fill="#ADD1B2" rx="10" ry="10" style="stroke:#181818;stroke-width:1.0;"/><path d="M837.9844,1003.4063 Q838.0938,1003.25 838.2188,1003.1719 Q838.3594,1003.0938 838.5156,1003.0938 Q838.7813,1003.0938 838.9375,1003.2813 Q839.1094,1003.4688 839.1094,1003.8906 L839.1094,1004.9219 Q839.1094,1005.3438 838.9375,1005.5313 Q838.7813,1005.7188 838.5156,1005.7188 Q838.2656,1005.7188 838.125,1005.5781 Q837.9844,1005.4531 837.9063,1005.0781 Q837.875,1004.8281 837.75,1004.7031 Q837.5,1004.4375 837.0625,1004.2813 Q836.6406,1004.125 836.2031,1004.125 Q835.6719,1004.125 835.2188,1004.3594 Q834.7656,1004.5938 834.4219,1005.125 Q834.0781,1005.6406 834.0781,1006.375 L834.0781,1007.1563 Q834.0781,1008.0156 834.7031,1008.5938 Q835.3438,1009.1719 836.4531,1009.1719 Q837.125,1009.1719 837.5938,1009 Q837.8594,1008.8906 838.1563,1008.5781 Q838.3438,1008.3906 838.4531,1008.3438 Q838.5625,1008.2813 838.6875,1008.2813 Q838.9375,1008.2813 839.1094,1008.4688 Q839.2969,1008.6406 839.2969,1008.8906 Q839.2969,1009.1406 839.0469,1009.4219 Q838.6875,1009.8281 838.125,1010.0625 Q837.375,1010.375 836.4688,1010.375 Q835.3906,1010.375 834.5469,1009.9375 Q833.8438,1009.5938 833.3594,1008.8281 Q832.875,1008.0625 832.875,1007.1719 L832.875,1006.3594 Q832.875,1005.4219 833.3125,1004.6094 Q833.75,1003.7969 834.5156,1003.3594 Q835.2969,1002.9219 836.1563,1002.9219 Q836.6875,1002.9219 837.1406,1003.0469 Q837.5938,1003.1563 837.9844,1003.4063 Z " fill="#000000"/><text fill="#000000" font-family="sans-serif" font-size="12" font-style="italic" lengthAdjust="spacing" textLength="73" x="880" y="1003.5664">&#171;Command&#187;</text><text fill="#000000" font-family="sans-serif" font-size="12" lengthAdjust="spacing" textLength="134" x="849.5" y="1018.6602">ProfileUpdateCommand</text><line style="stroke:#58728B;stroke-width:0.5;" x1="823.5" x2="985.5" y1="1026.2969" y2="1026.2969"/><text fill="#000000" font-family="sans-serif" font-size="12" lengthAdjust="spacing" textLength="99" x="828.5" y="1042.7539">+firstName: String</text><text fill="#000000" font-family="sans-serif" font-size="12" lengthAdjust="spacing" textLength="99" x="828.5" y="1057.8477">+lastName: String</text><text fill="#000000" font-family="sans-serif" font-size="12" lengthAdjust="spacing" textLength="76" x="828.5" y="1072.9414">+email: String</text><text fill="#000000" font-family="sans-serif" font-size="12" lengthAdjust="spacing" textLength="80" x="828.5" y="1088.0352">+phone: String</text><line style="stroke:#58728B;stroke-width:0.5;" x1="823.5" x2="985.5" y1="1094.6719" y2="1094.6719"/></g><!--class iamApi--><g id="elem_iamApi"><rect codeLine="73" fill="#F8FAFC" height="131.6563" id="iamApi" rx="2.5" ry="2.5" style="stroke:#58728B;stroke-width:0.5;" width="212" x="798.5" y="228.6094"/><ellipse cx="857.5" cy="248.7031" fill="#ADD1B2" rx="10" ry="10" style="stroke:#181818;stroke-width:1.0;"/><path d="M858.9844,245.9063 Q859.0938,245.75 859.2188,245.6719 Q859.3594,245.5938 859.5156,245.5938 Q859.7813,245.5938 859.9375,245.7813 Q860.1094,245.9688 860.1094,246.3906 L860.1094,247.4219 Q860.1094,247.8438 859.9375,248.0313 Q859.7813,248.2188 859.5156,248.2188 Q859.2656,248.2188 859.125,248.0781 Q858.9844,247.9531 858.9063,247.5781 Q858.875,247.3281 858.75,247.2031 Q858.5,246.9375 858.0625,246.7813 Q857.6406,246.625 857.2031,246.625 Q856.6719,246.625 856.2188,246.8594 Q855.7656,247.0938 855.4219,247.625 Q855.0781,248.1406 855.0781,248.875 L855.0781,249.6563 Q855.0781,250.5156 855.7031,251.0938 Q856.3438,251.6719 857.4531,251.6719 Q858.125,251.6719 858.5938,251.5 Q858.8594,251.3906 859.1563,251.0781 Q859.3438,250.8906 859.4531,250.8438 Q859.5625,250.7813 859.6875,250.7813 Q859.9375,250.7813 860.1094,250.9688 Q860.2969,251.1406 860.2969,251.3906 Q860.2969,251.6406 860.0469,251.9219 Q859.6875,252.3281 859.125,252.5625 Q858.375,252.875 857.4688,252.875 Q856.3906,252.875 855.5469,252.4375 Q854.8438,252.0938 854.3594,251.3281 Q853.875,250.5625 853.875,249.6719 L853.875,248.8594 Q853.875,247.9219 854.3125,247.1094 Q854.75,246.2969 855.5156,245.8594 Q856.2969,245.4219 857.1563,245.4219 Q857.6875,245.4219 858.1406,245.5469 Q858.5938,245.6563 858.9844,245.9063 Z " fill="#000000"/><text fill="#000000" font-family="sans-serif" font-size="12" font-style="italic" lengthAdjust="spacing" textLength="90" x="874.5" y="246.0664">&#171;HTTP adapter&#187;</text><text fill="#000000" font-family="sans-serif" font-size="12" lengthAdjust="spacing" textLength="70" x="884.5" y="261.1602">IamApiClient</text><line style="stroke:#58728B;stroke-width:0.5;" x1="799.5" x2="1009.5" y1="268.7969" y2="268.7969"/><line style="stroke:#58728B;stroke-width:0.5;" x1="799.5" x2="1009.5" y1="276.7969" y2="276.7969"/><text fill="#000000" font-family="sans-serif" font-size="12" lengthAdjust="spacing" textLength="105" x="804.5" y="293.2539">+signIn(command)</text><text fill="#000000" font-family="sans-serif" font-size="12" lengthAdjust="spacing" textLength="111" x="804.5" y="308.3477">+signUp(command)</text><text fill="#000000" font-family="sans-serif" font-size="12" lengthAdjust="spacing" textLength="200" x="804.5" y="323.4414">+completeInvitedAccount(command)</text><text fill="#000000" font-family="sans-serif" font-size="12" lengthAdjust="spacing" textLength="100" x="804.5" y="338.5352">+getCurrentUser()</text><text fill="#000000" font-family="sans-serif" font-size="12" lengthAdjust="spacing" textLength="144" x="804.5" y="353.6289">+updateProfile(command)</text></g><!--class userAssembler--><g id="elem_userAssembler"><rect codeLine="80" fill="#F8FAFC" height="86.375" id="userAssembler" rx="2.5" ry="2.5" style="stroke:#58728B;stroke-width:0.5;" width="157" x="826" y="395.6094"/><ellipse cx="858" cy="415.7031" fill="#ADD1B2" rx="10" ry="10" style="stroke:#181818;stroke-width:1.0;"/><path d="M859.4844,412.9063 Q859.5938,412.75 859.7188,412.6719 Q859.8594,412.5938 860.0156,412.5938 Q860.2813,412.5938 860.4375,412.7813 Q860.6094,412.9688 860.6094,413.3906 L860.6094,414.4219 Q860.6094,414.8438 860.4375,415.0313 Q860.2813,415.2188 860.0156,415.2188 Q859.7656,415.2188 859.625,415.0781 Q859.4844,414.9531 859.4063,414.5781 Q859.375,414.3281 859.25,414.2031 Q859,413.9375 858.5625,413.7813 Q858.1406,413.625 857.7031,413.625 Q857.1719,413.625 856.7188,413.8594 Q856.2656,414.0938 855.9219,414.625 Q855.5781,415.1406 855.5781,415.875 L855.5781,416.6563 Q855.5781,417.5156 856.2031,418.0938 Q856.8438,418.6719 857.9531,418.6719 Q858.625,418.6719 859.0938,418.5 Q859.3594,418.3906 859.6563,418.0781 Q859.8438,417.8906 859.9531,417.8438 Q860.0625,417.7813 860.1875,417.7813 Q860.4375,417.7813 860.6094,417.9688 Q860.7969,418.1406 860.7969,418.3906 Q860.7969,418.6406 860.5469,418.9219 Q860.1875,419.3281 859.625,419.5625 Q858.875,419.875 857.9688,419.875 Q856.8906,419.875 856.0469,419.4375 Q855.3438,419.0938 854.8594,418.3281 Q854.375,417.5625 854.375,416.6719 L854.375,415.8594 Q854.375,414.9219 854.8125,414.1094 Q855.25,413.2969 856.0156,412.8594 Q856.7969,412.4219 857.6563,412.4219 Q858.1875,412.4219 858.6406,412.5469 Q859.0938,412.6563 859.4844,412.9063 Z " fill="#000000"/><text fill="#000000" font-family="sans-serif" font-size="12" font-style="italic" lengthAdjust="spacing" textLength="74" x="881.5" y="413.0664">&#171;Assembler&#187;</text><text fill="#000000" font-family="sans-serif" font-size="12" lengthAdjust="spacing" textLength="87" x="875" y="428.1602">UserAssembler</text><line style="stroke:#58728B;stroke-width:0.5;" x1="827" x2="982" y1="435.7969" y2="435.7969"/><line style="stroke:#58728B;stroke-width:0.5;" x1="827" x2="982" y1="443.7969" y2="443.7969"/><text fill="#000000" font-family="sans-serif" font-size="12" lengthAdjust="spacing" textLength="136" x="832" y="460.2539">+toEntity(resource): User</text><text fill="#000000" font-family="sans-serif" font-size="12" lengthAdjust="spacing" textLength="145" x="832" y="475.3477">+toResource(user): Object</text></g><!--class authenticationAssembler--><g id="elem_authenticationAssembler"><rect codeLine="84" fill="#F8FAFC" height="71.2813" id="authenticationAssembler" rx="2.5" ry="2.5" style="stroke:#58728B;stroke-width:0.5;" width="261" x="774" y="517.1094"/><ellipse cx="832" cy="537.2031" fill="#ADD1B2" rx="10" ry="10" style="stroke:#181818;stroke-width:1.0;"/><path d="M833.4844,534.4063 Q833.5938,534.25 833.7188,534.1719 Q833.8594,534.0938 834.0156,534.0938 Q834.2813,534.0938 834.4375,534.2813 Q834.6094,534.4688 834.6094,534.8906 L834.6094,535.9219 Q834.6094,536.3438 834.4375,536.5313 Q834.2813,536.7188 834.0156,536.7188 Q833.7656,536.7188 833.625,536.5781 Q833.4844,536.4531 833.4063,536.0781 Q833.375,535.8281 833.25,535.7031 Q833,535.4375 832.5625,535.2813 Q832.1406,535.125 831.7031,535.125 Q831.1719,535.125 830.7188,535.3594 Q830.2656,535.5938 829.9219,536.125 Q829.5781,536.6406 829.5781,537.375 L829.5781,538.1563 Q829.5781,539.0156 830.2031,539.5938 Q830.8438,540.1719 831.9531,540.1719 Q832.625,540.1719 833.0938,540 Q833.3594,539.8906 833.6563,539.5781 Q833.8438,539.3906 833.9531,539.3438 Q834.0625,539.2813 834.1875,539.2813 Q834.4375,539.2813 834.6094,539.4688 Q834.7969,539.6406 834.7969,539.8906 Q834.7969,540.1406 834.5469,540.4219 Q834.1875,540.8281 833.625,541.0625 Q832.875,541.375 831.9688,541.375 Q830.8906,541.375 830.0469,540.9375 Q829.3438,540.5938 828.8594,539.8281 Q828.375,539.0625 828.375,538.1719 L828.375,537.3594 Q828.375,536.4219 828.8125,535.6094 Q829.25,534.7969 830.0156,534.3594 Q830.7969,533.9219 831.6563,533.9219 Q832.1875,533.9219 832.6406,534.0469 Q833.0938,534.1563 833.4844,534.4063 Z " fill="#000000"/><text fill="#000000" font-family="sans-serif" font-size="12" font-style="italic" lengthAdjust="spacing" textLength="74" x="882.5" y="534.5664">&#171;Assembler&#187;</text><text fill="#000000" font-family="sans-serif" font-size="12" lengthAdjust="spacing" textLength="137" x="851" y="549.6602">AuthenticationAssembler</text><line style="stroke:#58728B;stroke-width:0.5;" x1="775" x2="1034" y1="557.2969" y2="557.2969"/><line style="stroke:#58728B;stroke-width:0.5;" x1="775" x2="1034" y1="565.2969" y2="565.2969"/><text fill="#000000" font-family="sans-serif" font-size="12" lengthAdjust="spacing" textLength="249" x="780" y="581.7539">+toSession(resource): AuthenticationSession</text></g><!--class sessionStorage--><g id="elem_sessionStorage"><rect codeLine="87" fill="#F8FAFC" height="101.4688" id="sessionStorage" rx="2.5" ry="2.5" style="stroke:#58728B;stroke-width:0.5;" width="173" x="1488" y="153.1094"/><ellipse cx="1502" cy="173.2031" fill="#ADD1B2" rx="10" ry="10" style="stroke:#181818;stroke-width:1.0;"/><path d="M1503.4844,170.4063 Q1503.5938,170.25 1503.7188,170.1719 Q1503.8594,170.0938 1504.0156,170.0938 Q1504.2813,170.0938 1504.4375,170.2813 Q1504.6094,170.4688 1504.6094,170.8906 L1504.6094,171.9219 Q1504.6094,172.3438 1504.4375,172.5313 Q1504.2813,172.7188 1504.0156,172.7188 Q1503.7656,172.7188 1503.625,172.5781 Q1503.4844,172.4531 1503.4063,172.0781 Q1503.375,171.8281 1503.25,171.7031 Q1503,171.4375 1502.5625,171.2813 Q1502.1406,171.125 1501.7031,171.125 Q1501.1719,171.125 1500.7188,171.3594 Q1500.2656,171.5938 1499.9219,172.125 Q1499.5781,172.6406 1499.5781,173.375 L1499.5781,174.1563 Q1499.5781,175.0156 1500.2031,175.5938 Q1500.8438,176.1719 1501.9531,176.1719 Q1502.625,176.1719 1503.0938,176 Q1503.3594,175.8906 1503.6563,175.5781 Q1503.8438,175.3906 1503.9531,175.3438 Q1504.0625,175.2813 1504.1875,175.2813 Q1504.4375,175.2813 1504.6094,175.4688 Q1504.7969,175.6406 1504.7969,175.8906 Q1504.7969,176.1406 1504.5469,176.4219 Q1504.1875,176.8281 1503.625,177.0625 Q1502.875,177.375 1501.9688,177.375 Q1500.8906,177.375 1500.0469,176.9375 Q1499.3438,176.5938 1498.8594,175.8281 Q1498.375,175.0625 1498.375,174.1719 L1498.375,173.3594 Q1498.375,172.4219 1498.8125,171.6094 Q1499.25,170.7969 1500.0156,170.3594 Q1500.7969,169.9219 1501.6563,169.9219 Q1502.1875,169.9219 1502.6406,170.0469 Q1503.0938,170.1563 1503.4844,170.4063 Z " fill="#000000"/><text fill="#000000" font-family="sans-serif" font-size="12" font-style="italic" lengthAdjust="spacing" textLength="147" x="1513" y="170.5664">&#171;Browser storage adapter&#187;</text><text fill="#000000" font-family="sans-serif" font-size="12" lengthAdjust="spacing" textLength="89" x="1542" y="185.6602">SessionStorage</text><line style="stroke:#58728B;stroke-width:0.5;" x1="1489" x2="1660" y1="193.2969" y2="193.2969"/><line style="stroke:#58728B;stroke-width:0.5;" x1="1489" x2="1660" y1="201.2969" y2="201.2969"/><text fill="#000000" font-family="sans-serif" font-size="12" lengthAdjust="spacing" textLength="86" x="1494" y="217.7539">+save(session)</text><text fill="#000000" font-family="sans-serif" font-size="12" lengthAdjust="spacing" textLength="161" x="1494" y="232.8477">+get(): AuthenticationSession</text><text fill="#000000" font-family="sans-serif" font-size="12" lengthAdjust="spacing" textLength="42" x="1494" y="247.9414">+clear()</text></g><!--class iamHttpInterceptor--><g id="elem_iamHttpInterceptor"><rect codeLine="92" fill="#F8FAFC" height="71.2813" id="iamHttpInterceptor" rx="2.5" ry="2.5" style="stroke:#58728B;stroke-width:0.5;" width="166" x="1178.5" y="229.1094"/><ellipse cx="1207.8" cy="249.2031" fill="#ADD1B2" rx="10" ry="10" style="stroke:#181818;stroke-width:1.0;"/><path d="M1209.2844,246.4063 Q1209.3938,246.25 1209.5188,246.1719 Q1209.6594,246.0938 1209.8156,246.0938 Q1210.0813,246.0938 1210.2375,246.2813 Q1210.4094,246.4688 1210.4094,246.8906 L1210.4094,247.9219 Q1210.4094,248.3438 1210.2375,248.5313 Q1210.0813,248.7188 1209.8156,248.7188 Q1209.5656,248.7188 1209.425,248.5781 Q1209.2844,248.4531 1209.2063,248.0781 Q1209.175,247.8281 1209.05,247.7031 Q1208.8,247.4375 1208.3625,247.2813 Q1207.9406,247.125 1207.5031,247.125 Q1206.9719,247.125 1206.5188,247.3594 Q1206.0656,247.5938 1205.7219,248.125 Q1205.3781,248.6406 1205.3781,249.375 L1205.3781,250.1563 Q1205.3781,251.0156 1206.0031,251.5938 Q1206.6438,252.1719 1207.7531,252.1719 Q1208.425,252.1719 1208.8938,252 Q1209.1594,251.8906 1209.4563,251.5781 Q1209.6438,251.3906 1209.7531,251.3438 Q1209.8625,251.2813 1209.9875,251.2813 Q1210.2375,251.2813 1210.4094,251.4688 Q1210.5969,251.6406 1210.5969,251.8906 Q1210.5969,252.1406 1210.3469,252.4219 Q1209.9875,252.8281 1209.425,253.0625 Q1208.675,253.375 1207.7688,253.375 Q1206.6906,253.375 1205.8469,252.9375 Q1205.1438,252.5938 1204.6594,251.8281 Q1204.175,251.0625 1204.175,250.1719 L1204.175,249.3594 Q1204.175,248.4219 1204.6125,247.6094 Q1205.05,246.7969 1205.8156,246.3594 Q1206.5969,245.9219 1207.4563,245.9219 Q1207.9875,245.9219 1208.4406,246.0469 Q1208.8938,246.1563 1209.2844,246.4063 Z " fill="#000000"/><text fill="#000000" font-family="sans-serif" font-size="12" font-style="italic" lengthAdjust="spacing" textLength="106" x="1222.2" y="246.5664">&#171;HTTP interceptor&#187;</text><text fill="#000000" font-family="sans-serif" font-size="12" lengthAdjust="spacing" textLength="101" x="1224.7" y="261.6602">IamHttpInterceptor</text><line style="stroke:#58728B;stroke-width:0.5;" x1="1179.5" x2="1343.5" y1="269.2969" y2="269.2969"/><line style="stroke:#58728B;stroke-width:0.5;" x1="1179.5" x2="1343.5" y1="277.2969" y2="277.2969"/><text fill="#000000" font-family="sans-serif" font-size="12" lengthAdjust="spacing" textLength="154" x="1184.5" y="293.7539">+attachCredentials(request)</text></g><!--class authenticationGuard--><g id="elem_authenticationGuard"><rect codeLine="95" fill="#F8FAFC" height="71.2813" id="authenticationGuard" rx="2.5" ry="2.5" style="stroke:#58728B;stroke-width:0.5;" width="168" x="820.5" y="122.1094"/><ellipse cx="846.65" cy="142.2031" fill="#ADD1B2" rx="10" ry="10" style="stroke:#181818;stroke-width:1.0;"/><path d="M848.1344,139.4063 Q848.2438,139.25 848.3688,139.1719 Q848.5094,139.0938 848.6656,139.0938 Q848.9313,139.0938 849.0875,139.2813 Q849.2594,139.4688 849.2594,139.8906 L849.2594,140.9219 Q849.2594,141.3438 849.0875,141.5313 Q848.9313,141.7188 848.6656,141.7188 Q848.4156,141.7188 848.275,141.5781 Q848.1344,141.4531 848.0563,141.0781 Q848.025,140.8281 847.9,140.7031 Q847.65,140.4375 847.2125,140.2813 Q846.7906,140.125 846.3531,140.125 Q845.8219,140.125 845.3688,140.3594 Q844.9156,140.5938 844.5719,141.125 Q844.2281,141.6406 844.2281,142.375 L844.2281,143.1563 Q844.2281,144.0156 844.8531,144.5938 Q845.4938,145.1719 846.6031,145.1719 Q847.275,145.1719 847.7438,145 Q848.0094,144.8906 848.3063,144.5781 Q848.4938,144.3906 848.6031,144.3438 Q848.7125,144.2813 848.8375,144.2813 Q849.0875,144.2813 849.2594,144.4688 Q849.4469,144.6406 849.4469,144.8906 Q849.4469,145.1406 849.1969,145.4219 Q848.8375,145.8281 848.275,146.0625 Q847.525,146.375 846.6188,146.375 Q845.5406,146.375 844.6969,145.9375 Q843.9938,145.5938 843.5094,144.8281 Q843.025,144.0625 843.025,143.1719 L843.025,142.3594 Q843.025,141.4219 843.4625,140.6094 Q843.9,139.7969 844.6656,139.3594 Q845.4469,138.9219 846.3063,138.9219 Q846.8375,138.9219 847.2906,139.0469 Q847.7438,139.1563 848.1344,139.4063 Z " fill="#000000"/><text fill="#000000" font-family="sans-serif" font-size="12" font-style="italic" lengthAdjust="spacing" textLength="86" x="874.85" y="139.5664">&#171;Router guard&#187;</text><text fill="#000000" font-family="sans-serif" font-size="12" lengthAdjust="spacing" textLength="111" x="862.35" y="154.6602">AuthenticationGuard</text><line style="stroke:#58728B;stroke-width:0.5;" x1="821.5" x2="987.5" y1="162.2969" y2="162.2969"/><line style="stroke:#58728B;stroke-width:0.5;" x1="821.5" x2="987.5" y1="170.2969" y2="170.2969"/><text fill="#000000" font-family="sans-serif" font-size="12" lengthAdjust="spacing" textLength="156" x="826.5" y="186.7539">+canActivate(route): Boolean</text></g><!--class iamRoutes--><g id="elem_iamRoutes"><rect codeLine="100" fill="#F8FAFC" height="56.1875" id="iamRoutes" rx="2.5" ry="2.5" style="stroke:#58728B;stroke-width:0.5;" width="147" x="47" y="385.6094"/><ellipse cx="61" cy="405.7031" fill="#ADD1B2" rx="10" ry="10" style="stroke:#181818;stroke-width:1.0;"/><path d="M62.4844,402.9063 Q62.5938,402.75 62.7188,402.6719 Q62.8594,402.5938 63.0156,402.5938 Q63.2813,402.5938 63.4375,402.7813 Q63.6094,402.9688 63.6094,403.3906 L63.6094,404.4219 Q63.6094,404.8438 63.4375,405.0313 Q63.2813,405.2188 63.0156,405.2188 Q62.7656,405.2188 62.625,405.0781 Q62.4844,404.9531 62.4063,404.5781 Q62.375,404.3281 62.25,404.2031 Q62,403.9375 61.5625,403.7813 Q61.1406,403.625 60.7031,403.625 Q60.1719,403.625 59.7188,403.8594 Q59.2656,404.0938 58.9219,404.625 Q58.5781,405.1406 58.5781,405.875 L58.5781,406.6563 Q58.5781,407.5156 59.2031,408.0938 Q59.8438,408.6719 60.9531,408.6719 Q61.625,408.6719 62.0938,408.5 Q62.3594,408.3906 62.6563,408.0781 Q62.8438,407.8906 62.9531,407.8438 Q63.0625,407.7813 63.1875,407.7813 Q63.4375,407.7813 63.6094,407.9688 Q63.7969,408.1406 63.7969,408.3906 Q63.7969,408.6406 63.5469,408.9219 Q63.1875,409.3281 62.625,409.5625 Q61.875,409.875 60.9688,409.875 Q59.8906,409.875 59.0469,409.4375 Q58.3438,409.0938 57.8594,408.3281 Q57.375,407.5625 57.375,406.6719 L57.375,405.8594 Q57.375,404.9219 57.8125,404.1094 Q58.25,403.2969 59.0156,402.8594 Q59.7969,402.4219 60.6563,402.4219 Q61.1875,402.4219 61.6406,402.5469 Q62.0938,402.6563 62.4844,402.9063 Z " fill="#000000"/><text fill="#000000" font-family="sans-serif" font-size="12" font-style="italic" lengthAdjust="spacing" textLength="121" x="72" y="403.0664">&#171;Route configuration&#187;</text><text fill="#000000" font-family="sans-serif" font-size="12" lengthAdjust="spacing" textLength="61" x="102" y="418.1602">IamRoutes</text><line style="stroke:#58728B;stroke-width:0.5;" x1="48" x2="193" y1="425.7969" y2="425.7969"/><line style="stroke:#58728B;stroke-width:0.5;" x1="48" x2="193" y1="433.7969" y2="433.7969"/></g><!--class signInView--><g id="elem_signInView"><rect codeLine="101" fill="#F8FAFC" height="56.1875" id="signInView" rx="2.5" ry="2.5" style="stroke:#58728B;stroke-width:0.5;" width="91" x="302.5" y="385.6094"/><ellipse cx="316.5" cy="405.7031" fill="#ADD1B2" rx="10" ry="10" style="stroke:#181818;stroke-width:1.0;"/><path d="M317.9844,402.9063 Q318.0938,402.75 318.2188,402.6719 Q318.3594,402.5938 318.5156,402.5938 Q318.7813,402.5938 318.9375,402.7813 Q319.1094,402.9688 319.1094,403.3906 L319.1094,404.4219 Q319.1094,404.8438 318.9375,405.0313 Q318.7813,405.2188 318.5156,405.2188 Q318.2656,405.2188 318.125,405.0781 Q317.9844,404.9531 317.9063,404.5781 Q317.875,404.3281 317.75,404.2031 Q317.5,403.9375 317.0625,403.7813 Q316.6406,403.625 316.2031,403.625 Q315.6719,403.625 315.2188,403.8594 Q314.7656,404.0938 314.4219,404.625 Q314.0781,405.1406 314.0781,405.875 L314.0781,406.6563 Q314.0781,407.5156 314.7031,408.0938 Q315.3438,408.6719 316.4531,408.6719 Q317.125,408.6719 317.5938,408.5 Q317.8594,408.3906 318.1563,408.0781 Q318.3438,407.8906 318.4531,407.8438 Q318.5625,407.7813 318.6875,407.7813 Q318.9375,407.7813 319.1094,407.9688 Q319.2969,408.1406 319.2969,408.3906 Q319.2969,408.6406 319.0469,408.9219 Q318.6875,409.3281 318.125,409.5625 Q317.375,409.875 316.4688,409.875 Q315.3906,409.875 314.5469,409.4375 Q313.8438,409.0938 313.3594,408.3281 Q312.875,407.5625 312.875,406.6719 L312.875,405.8594 Q312.875,404.9219 313.3125,404.1094 Q313.75,403.2969 314.5156,402.8594 Q315.2969,402.4219 316.1563,402.4219 Q316.6875,402.4219 317.1406,402.5469 Q317.5938,402.6563 317.9844,402.9063 Z " fill="#000000"/><text fill="#000000" font-family="sans-serif" font-size="12" font-style="italic" lengthAdjust="spacing" textLength="63" x="328.5" y="403.0664">&#171;Vue view&#187;</text><text fill="#000000" font-family="sans-serif" font-size="12" lengthAdjust="spacing" textLength="61" x="329.5" y="418.1602">SignInView</text><line style="stroke:#58728B;stroke-width:0.5;" x1="303.5" x2="392.5" y1="425.7969" y2="425.7969"/><line style="stroke:#58728B;stroke-width:0.5;" x1="303.5" x2="392.5" y1="433.7969" y2="433.7969"/></g><!--class signUpView--><g id="elem_signUpView"><rect codeLine="102" fill="#F8FAFC" height="56.1875" id="signUpView" rx="2.5" ry="2.5" style="stroke:#58728B;stroke-width:0.5;" width="97" x="299.5" y="294.6094"/><ellipse cx="313.5" cy="314.7031" fill="#ADD1B2" rx="10" ry="10" style="stroke:#181818;stroke-width:1.0;"/><path d="M314.9844,311.9063 Q315.0938,311.75 315.2188,311.6719 Q315.3594,311.5938 315.5156,311.5938 Q315.7813,311.5938 315.9375,311.7813 Q316.1094,311.9688 316.1094,312.3906 L316.1094,313.4219 Q316.1094,313.8438 315.9375,314.0313 Q315.7813,314.2188 315.5156,314.2188 Q315.2656,314.2188 315.125,314.0781 Q314.9844,313.9531 314.9063,313.5781 Q314.875,313.3281 314.75,313.2031 Q314.5,312.9375 314.0625,312.7813 Q313.6406,312.625 313.2031,312.625 Q312.6719,312.625 312.2188,312.8594 Q311.7656,313.0938 311.4219,313.625 Q311.0781,314.1406 311.0781,314.875 L311.0781,315.6563 Q311.0781,316.5156 311.7031,317.0938 Q312.3438,317.6719 313.4531,317.6719 Q314.125,317.6719 314.5938,317.5 Q314.8594,317.3906 315.1563,317.0781 Q315.3438,316.8906 315.4531,316.8438 Q315.5625,316.7813 315.6875,316.7813 Q315.9375,316.7813 316.1094,316.9688 Q316.2969,317.1406 316.2969,317.3906 Q316.2969,317.6406 316.0469,317.9219 Q315.6875,318.3281 315.125,318.5625 Q314.375,318.875 313.4688,318.875 Q312.3906,318.875 311.5469,318.4375 Q310.8438,318.0938 310.3594,317.3281 Q309.875,316.5625 309.875,315.6719 L309.875,314.8594 Q309.875,313.9219 310.3125,313.1094 Q310.75,312.2969 311.5156,311.8594 Q312.2969,311.4219 313.1563,311.4219 Q313.6875,311.4219 314.1406,311.5469 Q314.5938,311.6563 314.9844,311.9063 Z " fill="#000000"/><text fill="#000000" font-family="sans-serif" font-size="12" font-style="italic" lengthAdjust="spacing" textLength="63" x="328.5" y="312.0664">&#171;Vue view&#187;</text><text fill="#000000" font-family="sans-serif" font-size="12" lengthAdjust="spacing" textLength="67" x="326.5" y="327.1602">SignUpView</text><line style="stroke:#58728B;stroke-width:0.5;" x1="300.5" x2="395.5" y1="334.7969" y2="334.7969"/><line style="stroke:#58728B;stroke-width:0.5;" x1="300.5" x2="395.5" y1="342.7969" y2="342.7969"/></g><!--class completeInvitedAccountView--><g id="elem_completeInvitedAccountView"><rect codeLine="103" fill="#F8FAFC" height="56.1875" id="completeInvitedAccountView" rx="2.5" ry="2.5" style="stroke:#58728B;stroke-width:0.5;" width="188" x="254" y="567.6094"/><ellipse cx="268" cy="587.7031" fill="#ADD1B2" rx="10" ry="10" style="stroke:#181818;stroke-width:1.0;"/><path d="M269.4844,584.9063 Q269.5938,584.75 269.7188,584.6719 Q269.8594,584.5938 270.0156,584.5938 Q270.2813,584.5938 270.4375,584.7813 Q270.6094,584.9688 270.6094,585.3906 L270.6094,586.4219 Q270.6094,586.8438 270.4375,587.0313 Q270.2813,587.2188 270.0156,587.2188 Q269.7656,587.2188 269.625,587.0781 Q269.4844,586.9531 269.4063,586.5781 Q269.375,586.3281 269.25,586.2031 Q269,585.9375 268.5625,585.7813 Q268.1406,585.625 267.7031,585.625 Q267.1719,585.625 266.7188,585.8594 Q266.2656,586.0938 265.9219,586.625 Q265.5781,587.1406 265.5781,587.875 L265.5781,588.6563 Q265.5781,589.5156 266.2031,590.0938 Q266.8438,590.6719 267.9531,590.6719 Q268.625,590.6719 269.0938,590.5 Q269.3594,590.3906 269.6563,590.0781 Q269.8438,589.8906 269.9531,589.8438 Q270.0625,589.7813 270.1875,589.7813 Q270.4375,589.7813 270.6094,589.9688 Q270.7969,590.1406 270.7969,590.3906 Q270.7969,590.6406 270.5469,590.9219 Q270.1875,591.3281 269.625,591.5625 Q268.875,591.875 267.9688,591.875 Q266.8906,591.875 266.0469,591.4375 Q265.3438,591.0938 264.8594,590.3281 Q264.375,589.5625 264.375,588.6719 L264.375,587.8594 Q264.375,586.9219 264.8125,586.1094 Q265.25,585.2969 266.0156,584.8594 Q266.7969,584.4219 267.6563,584.4219 Q268.1875,584.4219 268.6406,584.5469 Q269.0938,584.6563 269.4844,584.9063 Z " fill="#000000"/><text fill="#000000" font-family="sans-serif" font-size="12" font-style="italic" lengthAdjust="spacing" textLength="63" x="328.5" y="585.0664">&#171;Vue view&#187;</text><text fill="#000000" font-family="sans-serif" font-size="12" lengthAdjust="spacing" textLength="158" x="281" y="600.1602">CompleteInvitedAccountView</text><line style="stroke:#58728B;stroke-width:0.5;" x1="255" x2="441" y1="607.7969" y2="607.7969"/><line style="stroke:#58728B;stroke-width:0.5;" x1="255" x2="441" y1="615.7969" y2="615.7969"/></g><!--class userProfileView--><g id="elem_userProfileView"><rect codeLine="104" fill="#F8FAFC" height="56.1875" id="userProfileView" rx="2.5" ry="2.5" style="stroke:#58728B;stroke-width:0.5;" width="118" x="289" y="476.6094"/><ellipse cx="303" cy="496.7031" fill="#ADD1B2" rx="10" ry="10" style="stroke:#181818;stroke-width:1.0;"/><path d="M304.4844,493.9063 Q304.5938,493.75 304.7188,493.6719 Q304.8594,493.5938 305.0156,493.5938 Q305.2813,493.5938 305.4375,493.7813 Q305.6094,493.9688 305.6094,494.3906 L305.6094,495.4219 Q305.6094,495.8438 305.4375,496.0313 Q305.2813,496.2188 305.0156,496.2188 Q304.7656,496.2188 304.625,496.0781 Q304.4844,495.9531 304.4063,495.5781 Q304.375,495.3281 304.25,495.2031 Q304,494.9375 303.5625,494.7813 Q303.1406,494.625 302.7031,494.625 Q302.1719,494.625 301.7188,494.8594 Q301.2656,495.0938 300.9219,495.625 Q300.5781,496.1406 300.5781,496.875 L300.5781,497.6563 Q300.5781,498.5156 301.2031,499.0938 Q301.8438,499.6719 302.9531,499.6719 Q303.625,499.6719 304.0938,499.5 Q304.3594,499.3906 304.6563,499.0781 Q304.8438,498.8906 304.9531,498.8438 Q305.0625,498.7813 305.1875,498.7813 Q305.4375,498.7813 305.6094,498.9688 Q305.7969,499.1406 305.7969,499.3906 Q305.7969,499.6406 305.5469,499.9219 Q305.1875,500.3281 304.625,500.5625 Q303.875,500.875 302.9688,500.875 Q301.8906,500.875 301.0469,500.4375 Q300.3438,500.0938 299.8594,499.3281 Q299.375,498.5625 299.375,497.6719 L299.375,496.8594 Q299.375,495.9219 299.8125,495.1094 Q300.25,494.2969 301.0156,493.8594 Q301.7969,493.4219 302.6563,493.4219 Q303.1875,493.4219 303.6406,493.5469 Q304.0938,493.6563 304.4844,493.9063 Z " fill="#000000"/><text fill="#000000" font-family="sans-serif" font-size="12" font-style="italic" lengthAdjust="spacing" textLength="63" x="328.5" y="494.0664">&#171;Vue view&#187;</text><text fill="#000000" font-family="sans-serif" font-size="12" lengthAdjust="spacing" textLength="88" x="316" y="509.1602">UserProfileView</text><line style="stroke:#58728B;stroke-width:0.5;" x1="290" x2="406" y1="516.7969" y2="516.7969"/><line style="stroke:#58728B;stroke-width:0.5;" x1="290" x2="406" y1="524.7969" y2="524.7969"/></g><!--class signInForm--><g id="elem_signInForm"><rect codeLine="105" fill="#F8FAFC" height="56.1875" id="signInForm" rx="2.5" ry="2.5" style="stroke:#58728B;stroke-width:0.5;" width="127" x="544.5" y="385.6094"/><ellipse cx="558.5" cy="405.7031" fill="#ADD1B2" rx="10" ry="10" style="stroke:#181818;stroke-width:1.0;"/><path d="M559.9844,402.9063 Q560.0938,402.75 560.2188,402.6719 Q560.3594,402.5938 560.5156,402.5938 Q560.7813,402.5938 560.9375,402.7813 Q561.1094,402.9688 561.1094,403.3906 L561.1094,404.4219 Q561.1094,404.8438 560.9375,405.0313 Q560.7813,405.2188 560.5156,405.2188 Q560.2656,405.2188 560.125,405.0781 Q559.9844,404.9531 559.9063,404.5781 Q559.875,404.3281 559.75,404.2031 Q559.5,403.9375 559.0625,403.7813 Q558.6406,403.625 558.2031,403.625 Q557.6719,403.625 557.2188,403.8594 Q556.7656,404.0938 556.4219,404.625 Q556.0781,405.1406 556.0781,405.875 L556.0781,406.6563 Q556.0781,407.5156 556.7031,408.0938 Q557.3438,408.6719 558.4531,408.6719 Q559.125,408.6719 559.5938,408.5 Q559.8594,408.3906 560.1563,408.0781 Q560.3438,407.8906 560.4531,407.8438 Q560.5625,407.7813 560.6875,407.7813 Q560.9375,407.7813 561.1094,407.9688 Q561.2969,408.1406 561.2969,408.3906 Q561.2969,408.6406 561.0469,408.9219 Q560.6875,409.3281 560.125,409.5625 Q559.375,409.875 558.4688,409.875 Q557.3906,409.875 556.5469,409.4375 Q555.8438,409.0938 555.3594,408.3281 Q554.875,407.5625 554.875,406.6719 L554.875,405.8594 Q554.875,404.9219 555.3125,404.1094 Q555.75,403.2969 556.5156,402.8594 Q557.2969,402.4219 558.1563,402.4219 Q558.6875,402.4219 559.1406,402.5469 Q559.5938,402.6563 559.9844,402.9063 Z " fill="#000000"/><text fill="#000000" font-family="sans-serif" font-size="12" font-style="italic" lengthAdjust="spacing" textLength="101" x="569.5" y="403.0664">&#171;Vue component&#187;</text><text fill="#000000" font-family="sans-serif" font-size="12" lengthAdjust="spacing" textLength="64" x="588" y="418.1602">SignInForm</text><line style="stroke:#58728B;stroke-width:0.5;" x1="545.5" x2="670.5" y1="425.7969" y2="425.7969"/><line style="stroke:#58728B;stroke-width:0.5;" x1="545.5" x2="670.5" y1="433.7969" y2="433.7969"/></g><!--class signUpForm--><g id="elem_signUpForm"><rect codeLine="106" fill="#F8FAFC" height="56.1875" id="signUpForm" rx="2.5" ry="2.5" style="stroke:#58728B;stroke-width:0.5;" width="127" x="544.5" y="294.6094"/><ellipse cx="558.5" cy="314.7031" fill="#ADD1B2" rx="10" ry="10" style="stroke:#181818;stroke-width:1.0;"/><path d="M559.9844,311.9063 Q560.0938,311.75 560.2188,311.6719 Q560.3594,311.5938 560.5156,311.5938 Q560.7813,311.5938 560.9375,311.7813 Q561.1094,311.9688 561.1094,312.3906 L561.1094,313.4219 Q561.1094,313.8438 560.9375,314.0313 Q560.7813,314.2188 560.5156,314.2188 Q560.2656,314.2188 560.125,314.0781 Q559.9844,313.9531 559.9063,313.5781 Q559.875,313.3281 559.75,313.2031 Q559.5,312.9375 559.0625,312.7813 Q558.6406,312.625 558.2031,312.625 Q557.6719,312.625 557.2188,312.8594 Q556.7656,313.0938 556.4219,313.625 Q556.0781,314.1406 556.0781,314.875 L556.0781,315.6563 Q556.0781,316.5156 556.7031,317.0938 Q557.3438,317.6719 558.4531,317.6719 Q559.125,317.6719 559.5938,317.5 Q559.8594,317.3906 560.1563,317.0781 Q560.3438,316.8906 560.4531,316.8438 Q560.5625,316.7813 560.6875,316.7813 Q560.9375,316.7813 561.1094,316.9688 Q561.2969,317.1406 561.2969,317.3906 Q561.2969,317.6406 561.0469,317.9219 Q560.6875,318.3281 560.125,318.5625 Q559.375,318.875 558.4688,318.875 Q557.3906,318.875 556.5469,318.4375 Q555.8438,318.0938 555.3594,317.3281 Q554.875,316.5625 554.875,315.6719 L554.875,314.8594 Q554.875,313.9219 555.3125,313.1094 Q555.75,312.2969 556.5156,311.8594 Q557.2969,311.4219 558.1563,311.4219 Q558.6875,311.4219 559.1406,311.5469 Q559.5938,311.6563 559.9844,311.9063 Z " fill="#000000"/><text fill="#000000" font-family="sans-serif" font-size="12" font-style="italic" lengthAdjust="spacing" textLength="101" x="569.5" y="312.0664">&#171;Vue component&#187;</text><text fill="#000000" font-family="sans-serif" font-size="12" lengthAdjust="spacing" textLength="70" x="585" y="327.1602">SignUpForm</text><line style="stroke:#58728B;stroke-width:0.5;" x1="545.5" x2="670.5" y1="334.7969" y2="334.7969"/><line style="stroke:#58728B;stroke-width:0.5;" x1="545.5" x2="670.5" y1="342.7969" y2="342.7969"/></g><!--class completeInvitedAccountForm--><g id="elem_completeInvitedAccountForm"><rect codeLine="107" fill="#F8FAFC" height="56.1875" id="completeInvitedAccountForm" rx="2.5" ry="2.5" style="stroke:#58728B;stroke-width:0.5;" width="191" x="512.5" y="567.6094"/><ellipse cx="526.5" cy="587.7031" fill="#ADD1B2" rx="10" ry="10" style="stroke:#181818;stroke-width:1.0;"/><path d="M527.9844,584.9063 Q528.0938,584.75 528.2188,584.6719 Q528.3594,584.5938 528.5156,584.5938 Q528.7813,584.5938 528.9375,584.7813 Q529.1094,584.9688 529.1094,585.3906 L529.1094,586.4219 Q529.1094,586.8438 528.9375,587.0313 Q528.7813,587.2188 528.5156,587.2188 Q528.2656,587.2188 528.125,587.0781 Q527.9844,586.9531 527.9063,586.5781 Q527.875,586.3281 527.75,586.2031 Q527.5,585.9375 527.0625,585.7813 Q526.6406,585.625 526.2031,585.625 Q525.6719,585.625 525.2188,585.8594 Q524.7656,586.0938 524.4219,586.625 Q524.0781,587.1406 524.0781,587.875 L524.0781,588.6563 Q524.0781,589.5156 524.7031,590.0938 Q525.3438,590.6719 526.4531,590.6719 Q527.125,590.6719 527.5938,590.5 Q527.8594,590.3906 528.1563,590.0781 Q528.3438,589.8906 528.4531,589.8438 Q528.5625,589.7813 528.6875,589.7813 Q528.9375,589.7813 529.1094,589.9688 Q529.2969,590.1406 529.2969,590.3906 Q529.2969,590.6406 529.0469,590.9219 Q528.6875,591.3281 528.125,591.5625 Q527.375,591.875 526.4688,591.875 Q525.3906,591.875 524.5469,591.4375 Q523.8438,591.0938 523.3594,590.3281 Q522.875,589.5625 522.875,588.6719 L522.875,587.8594 Q522.875,586.9219 523.3125,586.1094 Q523.75,585.2969 524.5156,584.8594 Q525.2969,584.4219 526.1563,584.4219 Q526.6875,584.4219 527.1406,584.5469 Q527.5938,584.6563 527.9844,584.9063 Z " fill="#000000"/><text fill="#000000" font-family="sans-serif" font-size="12" font-style="italic" lengthAdjust="spacing" textLength="101" x="569.5" y="585.0664">&#171;Vue component&#187;</text><text fill="#000000" font-family="sans-serif" font-size="12" lengthAdjust="spacing" textLength="161" x="539.5" y="600.1602">CompleteInvitedAccountForm</text><line style="stroke:#58728B;stroke-width:0.5;" x1="513.5" x2="702.5" y1="607.7969" y2="607.7969"/><line style="stroke:#58728B;stroke-width:0.5;" x1="513.5" x2="702.5" y1="615.7969" y2="615.7969"/></g><!--class profileForm--><g id="elem_profileForm"><rect codeLine="108" fill="#F8FAFC" height="56.1875" id="profileForm" rx="2.5" ry="2.5" style="stroke:#58728B;stroke-width:0.5;" width="127" x="544.5" y="476.6094"/><ellipse cx="558.5" cy="496.7031" fill="#ADD1B2" rx="10" ry="10" style="stroke:#181818;stroke-width:1.0;"/><path d="M559.9844,493.9063 Q560.0938,493.75 560.2188,493.6719 Q560.3594,493.5938 560.5156,493.5938 Q560.7813,493.5938 560.9375,493.7813 Q561.1094,493.9688 561.1094,494.3906 L561.1094,495.4219 Q561.1094,495.8438 560.9375,496.0313 Q560.7813,496.2188 560.5156,496.2188 Q560.2656,496.2188 560.125,496.0781 Q559.9844,495.9531 559.9063,495.5781 Q559.875,495.3281 559.75,495.2031 Q559.5,494.9375 559.0625,494.7813 Q558.6406,494.625 558.2031,494.625 Q557.6719,494.625 557.2188,494.8594 Q556.7656,495.0938 556.4219,495.625 Q556.0781,496.1406 556.0781,496.875 L556.0781,497.6563 Q556.0781,498.5156 556.7031,499.0938 Q557.3438,499.6719 558.4531,499.6719 Q559.125,499.6719 559.5938,499.5 Q559.8594,499.3906 560.1563,499.0781 Q560.3438,498.8906 560.4531,498.8438 Q560.5625,498.7813 560.6875,498.7813 Q560.9375,498.7813 561.1094,498.9688 Q561.2969,499.1406 561.2969,499.3906 Q561.2969,499.6406 561.0469,499.9219 Q560.6875,500.3281 560.125,500.5625 Q559.375,500.875 558.4688,500.875 Q557.3906,500.875 556.5469,500.4375 Q555.8438,500.0938 555.3594,499.3281 Q554.875,498.5625 554.875,497.6719 L554.875,496.8594 Q554.875,495.9219 555.3125,495.1094 Q555.75,494.2969 556.5156,493.8594 Q557.2969,493.4219 558.1563,493.4219 Q558.6875,493.4219 559.1406,493.5469 Q559.5938,493.6563 559.9844,493.9063 Z " fill="#000000"/><text fill="#000000" font-family="sans-serif" font-size="12" font-style="italic" lengthAdjust="spacing" textLength="101" x="569.5" y="494.0664">&#171;Vue component&#187;</text><text fill="#000000" font-family="sans-serif" font-size="12" lengthAdjust="spacing" textLength="64" x="588" y="509.1602">ProfileForm</text><line style="stroke:#58728B;stroke-width:0.5;" x1="545.5" x2="670.5" y1="516.7969" y2="516.7969"/><line style="stroke:#58728B;stroke-width:0.5;" x1="545.5" x2="670.5" y1="524.7969" y2="524.7969"/></g><!--link iamRoutes to signInView--><g id="link_iamRoutes_signInView"><path codeLine="111" d="M194.05,399.6094 C229.62,399.6094 265.21,399.6094 296.19,399.6094 " fill="none" id="iamRoutes-to-signInView" style="stroke:#52677C;stroke-width:1.0;stroke-dasharray:7.0,7.0;"/><polygon fill="#52677C" points="302.19,399.6094,293.19,395.6094,297.19,399.6094,293.19,403.6094,302.19,399.6094" style="stroke:#52677C;stroke-width:1.0;"/></g><!--link iamRoutes to signUpView--><g id="link_iamRoutes_signUpView"><path codeLine="112" d="M145,385.3194 C145,358.5994 145,322.6094 145,322.6094 C145,322.6094 233.32,322.6094 293.38,322.6094 " fill="none" id="iamRoutes-to-signUpView" style="stroke:#52677C;stroke-width:1.0;stroke-dasharray:7.0,7.0;"/><polygon fill="#52677C" points="299.38,322.6094,290.38,318.6094,294.38,322.6094,290.38,326.6094,299.38,322.6094" style="stroke:#52677C;stroke-width:1.0;"/></g><!--link iamRoutes to completeInvitedAccountView--><g id="link_iamRoutes_completeInvitedAccountView"><path codeLine="113" d="M194.03,427.6094 C232.63,427.6094 272,427.6094 272,427.6094 C272,427.6094 272,513.6694 272,561.4894 " fill="none" id="iamRoutes-to-completeInvitedAccountView" style="stroke:#52677C;stroke-width:1.0;stroke-dasharray:7.0,7.0;"/><polygon fill="#52677C" points="272,567.4894,276,558.4894,272,562.4894,268,558.4894,272,567.4894" style="stroke:#52677C;stroke-width:1.0;"/></g><!--link iamRoutes to userProfileView--><g id="link_iamRoutes_userProfileView"><path codeLine="114" d="M194.25,413.6094 C241.88,413.6094 295,413.6094 295,413.6094 C295,413.6094 295,443.5994 295,470.3194 " fill="none" id="iamRoutes-to-userProfileView" style="stroke:#52677C;stroke-width:1.0;stroke-dasharray:7.0,7.0;"/><polygon fill="#52677C" points="295,476.3194,299,467.3194,295,471.3194,291,467.3194,295,476.3194" style="stroke:#52677C;stroke-width:1.0;"/></g><!--link iamRoutes to authenticationGuard--><g id="link_iamRoutes_authenticationGuard"><path codeLine="115" d="M96,385.4494 C96,316.6894 96,145.7794 96,145.7794 C96,145.7794 607.19,145.7794 814.26,145.7794 " fill="none" id="iamRoutes-to-authenticationGuard" style="stroke:#52677C;stroke-width:1.0;stroke-dasharray:7.0,7.0;"/><polygon fill="#52677C" points="820.26,145.7794,811.26,141.7794,815.26,145.7794,811.26,149.7794,820.26,145.7794" style="stroke:#52677C;stroke-width:1.0;"/></g><!--link signInView to signInForm--><g id="link_signInView_signInForm"><path codeLine="116" d="M393.59,404.2794 C435.38,404.2794 491.69,404.2794 538.39,404.2794 " fill="none" id="signInView-to-signInForm" style="stroke:#52677C;stroke-width:1.0;stroke-dasharray:7.0,7.0;"/><polygon fill="#52677C" points="544.39,404.2794,535.39,400.2794,539.39,404.2794,535.39,408.2794,544.39,404.2794" style="stroke:#52677C;stroke-width:1.0;"/></g><!--link signUpView to signUpForm--><g id="link_signUpView_signUpForm"><path codeLine="117" d="M396.6,313.2794 C438.34,313.2794 492.82,313.2794 538.4,313.2794 " fill="none" id="signUpView-to-signUpForm" style="stroke:#52677C;stroke-width:1.0;stroke-dasharray:7.0,7.0;"/><polygon fill="#52677C" points="544.4,313.2794,535.4,309.2794,539.4,313.2794,535.4,317.2794,544.4,313.2794" style="stroke:#52677C;stroke-width:1.0;"/></g><!--link completeInvitedAccountView to completeInvitedAccountForm--><g id="link_completeInvitedAccountView_completeInvitedAccountForm"><path codeLine="118" d="M442.23,586.2794 C465.05,586.2794 483.46,586.2794 506.34,586.2794 " fill="none" id="completeInvitedAccountView-to-completeInvitedAccountForm" style="stroke:#52677C;stroke-width:1.0;stroke-dasharray:7.0,7.0;"/><polygon fill="#52677C" points="512.34,586.2794,503.34,582.2794,507.34,586.2794,503.34,590.2794,512.34,586.2794" style="stroke:#52677C;stroke-width:1.0;"/></g><!--link userProfileView to profileForm--><g id="link_userProfileView_profileForm"><path codeLine="119" d="M407.32,495.2794 C448.24,495.2794 496.58,495.2794 538.39,495.2794 " fill="none" id="userProfileView-to-profileForm" style="stroke:#52677C;stroke-width:1.0;stroke-dasharray:7.0,7.0;"/><polygon fill="#52677C" points="544.39,495.2794,535.39,491.2794,539.39,495.2794,535.39,499.2794,544.39,495.2794" style="stroke:#52677C;stroke-width:1.0;"/></g><!--link signInView to iamStore--><g id="link_signInView_iamStore"><path codeLine="120" d="M393.85,422.9394 C441.13,422.9394 508,422.9394 508,422.9394 C508,422.9394 508,579.7794 508,691.8894 " fill="none" id="signInView-to-iamStore" style="stroke:#52677C;stroke-width:1.0;stroke-dasharray:7.0,7.0;"/><polygon fill="#52677C" points="508,697.8894,512,688.8894,508,692.8894,504,688.8894,508,697.8894" style="stroke:#52677C;stroke-width:1.0;"/></g><!--link signUpView to iamStore--><g id="link_signUpView_iamStore"><path codeLine="121" d="M396.74,331.9394 C444.13,331.9394 509,331.9394 509,331.9394 C509,331.9394 509,553.6494 509,691.9594 " fill="none" id="signUpView-to-iamStore" style="stroke:#52677C;stroke-width:1.0;stroke-dasharray:7.0,7.0;"/><polygon fill="#52677C" points="509,697.9594,513,688.9594,509,692.9594,505,688.9594,509,697.9594" style="stroke:#52677C;stroke-width:1.0;"/></g><!--link completeInvitedAccountView to iamStore--><g id="link_completeInvitedAccountView_iamStore"><path codeLine="122" d="M442.34,604.9394 C475.2,604.9394 504,604.9394 504,604.9394 C504,604.9394 504,644.7094 504,692.0894 " fill="none" id="completeInvitedAccountView-to-iamStore" style="stroke:#52677C;stroke-width:1.0;stroke-dasharray:7.0,7.0;"/><polygon fill="#52677C" points="504,698.0894,508,689.0894,504,693.0894,500,689.0894,504,698.0894" style="stroke:#52677C;stroke-width:1.0;"/></g><!--link userProfileView to iamStore--><g id="link_userProfileView_iamStore"><path codeLine="123" d="M407.28,513.9394 C452.12,513.9394 506,513.9394 506,513.9394 C506,513.9394 506,609.3594 506,691.7594 " fill="none" id="userProfileView-to-iamStore" style="stroke:#52677C;stroke-width:1.0;stroke-dasharray:7.0,7.0;"/><polygon fill="#52677C" points="506,697.7594,510,688.7594,506,692.7594,502,688.7594,506,697.7594" style="stroke:#52677C;stroke-width:1.0;"/></g><!--link iamStore to signInCommand--><g id="link_iamStore_signInCommand"><path codeLine="124" d="M714.21,874.7294 C757.08,874.7294 799.06,874.7294 836.12,874.7294 " fill="none" id="iamStore-to-signInCommand" style="stroke:#52677C;stroke-width:1.0;stroke-dasharray:7.0,7.0;"/><polygon fill="#52677C" points="842.12,874.7294,833.12,870.7294,837.12,874.7294,833.12,878.7294,842.12,874.7294" style="stroke:#52677C;stroke-width:1.0;"/></g><!--link iamStore to signUpCommand--><g id="link_iamStore_signUpCommand"><path codeLine="125" d="M714.21,763.8594 C755.91,763.8594 796.46,763.8594 833.08,763.8594 " fill="none" id="iamStore-to-signUpCommand" style="stroke:#52677C;stroke-width:1.0;stroke-dasharray:7.0,7.0;"/><polygon fill="#52677C" points="839.08,763.8594,830.08,759.8594,834.08,763.8594,830.08,767.8594,839.08,763.8594" style="stroke:#52677C;stroke-width:1.0;"/></g><!--link iamStore to completeInvitedAccountCommand--><g id="link_iamStore_completeInvitedAccountCommand"><path codeLine="126" d="M714.09,894.9894 C762.41,894.9894 809,894.9894 809,894.9894 C809,894.9894 809,1047.7594 809,1131.7994 " fill="none" id="iamStore-to-completeInvitedAccountCommand" style="stroke:#52677C;stroke-width:1.0;stroke-dasharray:7.0,7.0;"/><polygon fill="#52677C" points="809,1137.7994,813,1128.7994,809,1132.7994,805,1128.7994,809,1137.7994" style="stroke:#52677C;stroke-width:1.0;"/></g><!--link iamStore to profileUpdateCommand--><g id="link_iamStore_profileUpdateCommand"><path codeLine="127" d="M714.28,884.8594 C771.71,884.8594 831,884.8594 831,884.8594 C831,884.8594 831,934.4394 831,980.0294 " fill="none" id="iamStore-to-profileUpdateCommand" style="stroke:#52677C;stroke-width:1.0;stroke-dasharray:7.0,7.0;"/><polygon fill="#52677C" points="831,986.0294,835,977.0294,831,981.0294,827,977.0294,831,986.0294" style="stroke:#52677C;stroke-width:1.0;"/></g><!--link iamStore to iamApi--><g id="link_iamStore_iamApi"><path codeLine="128" d="M706,697.8894 C706,566.1194 706,355.6094 706,355.6094 C706,355.6094 745.08,355.6094 792.28,355.6094 " fill="none" id="iamStore-to-iamApi" style="stroke:#52677C;stroke-width:1.0;stroke-dasharray:7.0,7.0;"/><polygon fill="#52677C" points="798.28,355.6094,789.28,351.6094,793.28,355.6094,789.28,359.6094,798.28,355.6094" style="stroke:#52677C;stroke-width:1.0;"/></g><!--link iamStore to userAssembler--><g id="link_iamStore_userAssembler"><path codeLine="129" d="M708,697.9194 C708,597.1094 708,459.1094 708,459.1094 C708,459.1094 765.26,459.1094 819.99,459.1094 " fill="none" id="iamStore-to-userAssembler" style="stroke:#52677C;stroke-width:1.0;stroke-dasharray:7.0,7.0;"/><polygon fill="#52677C" points="825.99,459.1094,816.99,455.1094,820.99,459.1094,816.99,463.1094,825.99,459.1094" style="stroke:#52677C;stroke-width:1.0;"/></g><!--link iamStore to authenticationAssembler--><g id="link_iamStore_authenticationAssembler"><path codeLine="130" d="M710,697.9194 C710,639.3894 710,577.8594 710,577.8594 C710,577.8594 732.65,577.8594 767.96,577.8594 " fill="none" id="iamStore-to-authenticationAssembler" style="stroke:#52677C;stroke-width:1.0;stroke-dasharray:7.0,7.0;"/><polygon fill="#52677C" points="773.96,577.8594,764.96,573.8594,768.96,577.8594,764.96,581.8594,773.96,577.8594" style="stroke:#52677C;stroke-width:1.0;"/></g><!--link iamStore to sessionStorage--><g id="link_iamStore_sessionStorage"><path codeLine="131" d="M714.42,839.7794 C952.03,839.7794 1505,839.7794 1505,839.7794 C1505,839.7794 1505,411.0394 1505,260.3294 " fill="none" id="iamStore-to-sessionStorage" style="stroke:#52677C;stroke-width:1.0;stroke-dasharray:7.0,7.0;"/><polygon fill="#52677C" points="1505,254.3294,1501,263.3294,1505,259.3294,1509,263.3294,1505,254.3294" style="stroke:#52677C;stroke-width:1.0;"/></g><!--link iamApi to iamHttpInterceptor--><g id="link_iamApi_iamHttpInterceptor"><path codeLine="132" d="M1010.65,264.6094 C1064.29,264.6094 1122.43,264.6094 1172.42,264.6094 " fill="none" id="iamApi-to-iamHttpInterceptor" style="stroke:#52677C;stroke-width:1.0;stroke-dasharray:7.0,7.0;"/><polygon fill="#52677C" points="1178.42,264.6094,1169.42,260.6094,1173.42,264.6094,1169.42,268.6094,1178.42,264.6094" style="stroke:#52677C;stroke-width:1.0;"/></g><!--link iamHttpInterceptor to sessionStorage--><g id="link_iamHttpInterceptor_sessionStorage"><path codeLine="133" d="M1344.56,241.6094 C1388.75,241.6094 1437.04,241.6094 1481.77,241.6094 " fill="none" id="iamHttpInterceptor-to-sessionStorage" style="stroke:#52677C;stroke-width:1.0;stroke-dasharray:7.0,7.0;"/><polygon fill="#52677C" points="1487.77,241.6094,1478.77,237.6094,1482.77,241.6094,1478.77,245.6094,1487.77,241.6094" style="stroke:#52677C;stroke-width:1.0;"/></g><!--link authenticationGuard to iamStore--><g id="link_authenticationGuard_iamStore"><path codeLine="134" d="M820.08,169.4394 C704.46,169.4394 511,169.4394 511,169.4394 C511,169.4394 511,512.5794 511,691.9294 " fill="none" id="authenticationGuard-to-iamStore" style="stroke:#52677C;stroke-width:1.0;stroke-dasharray:7.0,7.0;"/><polygon fill="#52677C" points="511,697.9294,515,688.9294,511,692.9294,507,688.9294,511,697.9294" style="stroke:#52677C;stroke-width:1.0;"/></g><!--link userAssembler to iamUser--><g id="link_userAssembler_iamUser"><path codeLine="135" d="M983.21,438.6094 C1050.66,438.6094 1137,438.6094 1137,438.6094 C1137,438.6094 1137,565.9194 1137,656.2794 " fill="none" id="userAssembler-to-iamUser" style="stroke:#52677C;stroke-width:1.0;stroke-dasharray:7.0,7.0;"/><polygon fill="#52677C" points="1137,662.2794,1141,653.2794,1137,657.2794,1133,653.2794,1137,662.2794" style="stroke:#52677C;stroke-width:1.0;"/></g><!--link authenticationAssembler to authenticationSession--><g id="link_authenticationAssembler_authenticationSession"><path codeLine="136" d="M1025,588.2694 C1025,678.2994 1025,907.6094 1025,907.6094 C1025,907.6094 1109.66,907.6094 1178.72,907.6094 " fill="none" id="authenticationAssembler-to-authenticationSession" style="stroke:#52677C;stroke-width:1.0;stroke-dasharray:7.0,7.0;"/><polygon fill="#52677C" points="1184.72,907.6094,1175.72,903.6094,1179.72,907.6094,1175.72,911.6094,1184.72,907.6094" style="stroke:#52677C;stroke-width:1.0;"/></g><!--link iamStore to iamUser--><g id="link_iamStore_iamUser"><path codeLine="137" d="M712,698.0394 C712,687.2394 712,680.1094 712,680.1094 C712,680.1094 927.07,680.1094 1088.77,680.1094 " fill="none" id="iamStore-to-iamUser" style="stroke:#52677C;stroke-width:1.0;stroke-dasharray:7.0,7.0;"/><polygon fill="#52677C" points="1094.77,680.1094,1085.77,676.1094,1089.77,680.1094,1085.77,684.1094,1094.77,680.1094" style="stroke:#52677C;stroke-width:1.0;"/></g><!--link iamStore to authenticationSession--><g id="link_iamStore_authenticationSession"><path codeLine="138" d="M714.17,849.9394 C899.38,849.9394 1262,849.9394 1262,849.9394 C1262,849.9394 1262,847.9794 1262,853.9594 " fill="none" id="iamStore-to-authenticationSession" style="stroke:#52677C;stroke-width:1.0;stroke-dasharray:7.0,7.0;"/><polygon fill="#52677C" points="1262,859.9594,1266,850.9594,1262,854.9594,1258,850.9594,1262,859.9594" style="stroke:#52677C;stroke-width:1.0;"/></g><!--link iamUser to accountStatus--><g id="link_iamUser_accountStatus"><path codeLine="139" d="M1428.08,743.6094 C1461.51,743.6094 1488.33,743.6094 1514.39,743.6094 " fill="none" id="iamUser-to-accountStatus" style="stroke:#52677C;stroke-width:1.0;stroke-dasharray:7.0,7.0;"/><polygon fill="#52677C" points="1520.39,743.6094,1511.39,739.6094,1515.39,743.6094,1511.39,747.6094,1520.39,743.6094" style="stroke:#52677C;stroke-width:1.0;"/></g><!--SRC=[lHTDRziszAvVGQGN6SkADK2Nm2WCA4hSwh3KgEtS6OcMkKYaHb59iy7_VOyK9P4IRQE7DWV7x_lxFLfIMH2Ki5f61H4I_OwMWZD9M8RY0jSrkgCu5xW4GXBz5HHa9v7aID1yBr561KabvIoedochiEAhSFgCSxAMRw1NaJ7B2s8nf4fj9AMWJuqaIShPclvBq1yMIxt76N-bB4SxNDIsS44PaMyLGLp8FRS86TdXff1By5sh-t0rzUcMYuo8c1TSe7SVFrv_kBaT- -Mot5nVEIoH4For8rxzUNqTUup0lrpmXcM6SQd_9eOcR3VBQ1a7WL63BY3T5mZNYE8oLXNvBj5_0K8z_OwNcBAEfOKq1seje8jjJKH7Lz_Hfq_tJ5BvjbWOHeH-ezaShQ4OBEymEofg-O1BCYQ0LY-UWEbYZApsd4quQubbKyzHbAOGkbnhi2CsLOObMH5HSuQBEonnsBjoYJhZbqYRkqJQm4mB7_GdOKs9BXpLEdfiO_h0L_SFTyd3PmD5yIPvl3T0yc211pkZKIFt15AOOjNrQrBNyAyrugDu4mxk07N3dmcR9F9x1HC5mp5743xPq9BqPQhlDJ4BPtDqotb1CElzEzXz4LLLOTpeYc-Xt0v9SBcMN92EKGFWzOeoYf66RDVJHWW8KlNI7AdFlgvjl51ONng662mooTmub1QQiuI5AIzBpBAPZTvM4pJ0LK5WWx0N2jfCtITi1STPFFWTpaRj9lYE5cGY1cLGqPi8GiUPhuqCPzFcM6lturQHpcXjOo2jvfkTKl_iWBvNs4GEVc9hMurjzHY_hPyusESzZhtbiYD8Jt7yGFOaAIiki7XR-Pm21aPULsVzDOsnrLrYkrbv2BystvEHJzXEW4hHfB8PXjd5JWO_gcXSK1YBOKjGYEFBPhD2ECEL9C8EvgSCPqxaZyxcONpXehecvLDXJbrZOo2S_hiTY-JjMWvXodaZKZ9prvdatmmXLFg0-lNfRtZAd3i8hYlOJplkLBTiBA-ExrDt7RG4jR2X8TfzuA30w2syNTGZe3OONutn2mcDe5sZS7PciwUmneLl9qAVVP6oIk3z0W5LOBhhjX6wwpmwe9oZAILEzp7SF-K3F0eXIVyqiADdvshokS4YyzH3uy7gDmwlK85o1Jgt3hC8thOlq8UXK3pdxkuAoWRgdSDhuoO3g2tN7MiBTGx1CcGxcZT2YouMqplpICchTMGK2CAF3K4ly7KgiQqSYHOyAk7Vrhs6z2Zvg4OrNsQWUpMDYplfVyAMN9HMn0eq4ieTM99C-i9sn5hmj9W_zbvDUfHyMgq9jDTJ3R1Ny10SWg4lthzVM9Ns4Dg2ZWZ7wpHY75LYHFLCJc2rtU2R2YQmscjmJbDEjCrnRxNak5CKkvN0iJVTKtRiIuy_uqdFvxFR4_i7yv00ymgOalgdcKiw-UPnMNtl3fUZlU4kphc7Bkd8VHhvxfoHm3mJZBNH3WyyQzsZmxU79qaVpgKXwVjyxAHEm-aEr3X1Mis9D5Xo-YUpvh1_GFuF]--></g></svg>