<?plantuml 1.2026.2?><svg xmlns="http://www.w3.org/2000/svg" xmlns:xlink="http://www.w3.org/1999/xlink" contentStyleType="text/css" data-diagram-type="CLASS" height="604px" preserveAspectRatio="none" style="width:509px;height:604px;background:#FFFFFF;" version="1.1" viewBox="0 0 509 604" width="509px" zoomAndPan="magnify"><title>InstAlert Backend &#8212; Mapping &#8212; modelo de dominio</title><defs/><g><g class="title" data-source-line="8"><text fill="#000000" font-family="sans-serif" font-size="14" font-weight="bold" lengthAdjust="spacing" textLength="349.3438" x="73.2891" y="24.5332">InstAlert Backend &#8212; Mapping &#8212; modelo de dominio</text></g><!--class B_RiskZone--><g class="entity" data-qualified-name="B_RiskZone" data-source-line="9" id="ent0002"><rect fill="#F1F1F1" height="207.125" rx="2.5" ry="2.5" style="stroke:#181818;stroke-width:0.5;" width="231.7734" x="58" y="45.6094"/><ellipse cx="137.5244" cy="65.7031" fill="#ADD1B2" rx="10" ry="10" style="stroke:#181818;stroke-width:1;"/><path d="M139.0088,62.9063 Q139.1182,62.75 139.2432,62.6719 Q139.3838,62.5938 139.54,62.5938 Q139.8057,62.5938 139.9619,62.7813 Q140.1338,62.9688 140.1338,63.3906 L140.1338,64.4219 Q140.1338,64.8438 139.9619,65.0313 Q139.8057,65.2188 139.54,65.2188 Q139.29,65.2188 139.1494,65.0781 Q139.0088,64.9531 138.9307,64.5781 Q138.8994,64.3281 138.7744,64.2031 Q138.5244,63.9375 138.0869,63.7813 Q137.665,63.625 137.2275,63.625 Q136.6963,63.625 136.2432,63.8594 Q135.79,64.0938 135.4463,64.625 Q135.1025,65.1406 135.1025,65.875 L135.1025,66.6563 Q135.1025,67.5156 135.7275,68.0938 Q136.3682,68.6719 137.4775,68.6719 Q138.1494,68.6719 138.6182,68.5 Q138.8838,68.3906 139.1807,68.0781 Q139.3682,67.8906 139.4775,67.8438 Q139.5869,67.7813 139.7119,67.7813 Q139.9619,67.7813 140.1338,67.9688 Q140.3213,68.1406 140.3213,68.3906 Q140.3213,68.6406 140.0713,68.9219 Q139.7119,69.3281 139.1494,69.5625 Q138.3994,69.875 137.4932,69.875 Q136.415,69.875 135.5713,69.4375 Q134.8682,69.0938 134.3838,68.3281 Q133.8994,67.5625 133.8994,66.6719 L133.8994,65.8594 Q133.8994,64.9219 134.3369,64.1094 Q134.7744,63.2969 135.54,62.8594 Q136.3213,62.4219 137.1807,62.4219 Q137.7119,62.4219 138.165,62.5469 Q138.6182,62.6563 139.0088,62.9063 Z " fill="#000000"/><text fill="#000000" font-family="sans-serif" font-size="12" font-style="italic" lengthAdjust="spacing" textLength="68.7246" x="154.5244" y="63.0664">&#171;Aggregate&#187;</text><text fill="#000000" font-family="sans-serif" font-size="12" lengthAdjust="spacing" textLength="50.6836" x="163.5449" y="78.1602">RiskZone</text><line style="stroke:#181818;stroke-width:0.5;" x1="59" x2="288.7734" y1="85.7969" y2="85.7969"/><text fill="#000000" font-family="sans-serif" font-size="12" lengthAdjust="spacing" textLength="36.3574" x="64" y="102.2539">+Id: int</text><text fill="#000000" font-family="sans-serif" font-size="12" lengthAdjust="spacing" textLength="75.0293" x="64" y="117.3477">+Name: string</text><text fill="#000000" font-family="sans-serif" font-size="12" lengthAdjust="spacing" textLength="142.418" x="64" y="132.4414">+BoundaryGeoJson: string</text><text fill="#000000" font-family="sans-serif" font-size="12" lengthAdjust="spacing" textLength="117.7148" x="64" y="147.5352">+RiskLevel: RiskLevel</text><text fill="#000000" font-family="sans-serif" font-size="12" lengthAdjust="spacing" textLength="100.4004" x="64" y="162.6289">+IncidentCount: int</text><text fill="#000000" font-family="sans-serif" font-size="12" lengthAdjust="spacing" textLength="165.7207" x="64" y="177.7227">+WindowStart: DateTimeOffset</text><text fill="#000000" font-family="sans-serif" font-size="12" lengthAdjust="spacing" textLength="161.7305" x="64" y="192.8164">+WindowEnd: DateTimeOffset</text><text fill="#000000" font-family="sans-serif" font-size="12" lengthAdjust="spacing" textLength="165.7383" x="64" y="207.9102">+CalculatedAt: DateTimeOffset</text><text fill="#000000" font-family="sans-serif" font-size="12" lengthAdjust="spacing" textLength="115.7168" x="64" y="223.0039">+PolicyVersion: string</text><line style="stroke:#181818;stroke-width:0.5;" x1="59" x2="288.7734" y1="229.6406" y2="229.6406"/><text fill="#000000" font-family="sans-serif" font-size="12" lengthAdjust="spacing" textLength="219.7734" x="64" y="246.0977">+Recalculate(incidents, policy, now): void</text></g><!--class B_IncidentProjection--><g class="entity" data-qualified-name="B_IncidentProjection" data-source-line="21" id="ent0003"><rect fill="#F1F1F1" height="267.5" rx="2.5" ry="2.5" style="stroke:#181818;stroke-width:0.5;" width="171.7324" x="7" y="329.6094"/><ellipse cx="41.8538" cy="349.7031" fill="#ADD1B2" rx="10" ry="10" style="stroke:#181818;stroke-width:1;"/><path d="M43.3382,346.9063 Q43.4476,346.75 43.5726,346.6719 Q43.7132,346.5938 43.8694,346.5938 Q44.1351,346.5938 44.2913,346.7813 Q44.4632,346.9688 44.4632,347.3906 L44.4632,348.4219 Q44.4632,348.8438 44.2913,349.0313 Q44.1351,349.2188 43.8694,349.2188 Q43.6194,349.2188 43.4788,349.0781 Q43.3382,348.9531 43.2601,348.5781 Q43.2288,348.3281 43.1038,348.2031 Q42.8538,347.9375 42.4163,347.7813 Q41.9944,347.625 41.5569,347.625 Q41.0257,347.625 40.5726,347.8594 Q40.1194,348.0938 39.7757,348.625 Q39.4319,349.1406 39.4319,349.875 L39.4319,350.6563 Q39.4319,351.5156 40.0569,352.0938 Q40.6976,352.6719 41.8069,352.6719 Q42.4788,352.6719 42.9476,352.5 Q43.2132,352.3906 43.5101,352.0781 Q43.6976,351.8906 43.8069,351.8438 Q43.9163,351.7813 44.0413,351.7813 Q44.2913,351.7813 44.4632,351.9688 Q44.6507,352.1406 44.6507,352.3906 Q44.6507,352.6406 44.4007,352.9219 Q44.0413,353.3281 43.4788,353.5625 Q42.7288,353.875 41.8226,353.875 Q40.7444,353.875 39.9007,353.4375 Q39.1976,353.0938 38.7132,352.3281 Q38.2288,351.5625 38.2288,350.6719 L38.2288,349.8594 Q38.2288,348.9219 38.6663,348.1094 Q39.1038,347.2969 39.8694,346.8594 Q40.6507,346.4219 41.5101,346.4219 Q42.0413,346.4219 42.4944,346.5469 Q42.9476,346.6563 43.3382,346.9063 Z " fill="#000000"/><text fill="#000000" font-family="sans-serif" font-size="12" font-style="italic" lengthAdjust="spacing" textLength="74.7188" x="69.8239" y="347.0664">&#171;ReadModel&#187;</text><text fill="#000000" font-family="sans-serif" font-size="12" lengthAdjust="spacing" textLength="95.3906" x="59.488" y="362.1602">IncidentProjection</text><line style="stroke:#181818;stroke-width:0.5;" x1="8" x2="177.7324" y1="369.7969" y2="369.7969"/><text fill="#000000" font-family="sans-serif" font-size="12" lengthAdjust="spacing" textLength="36.3574" x="13" y="386.2539">+Id: int</text><text fill="#000000" font-family="sans-serif" font-size="12" lengthAdjust="spacing" textLength="99.0527" x="13" y="401.3477">+SourceAlertId: int</text><text fill="#000000" font-family="sans-serif" font-size="12" lengthAdjust="spacing" textLength="85.0488" x="13" y="416.4414">+BusinessId: int</text><text fill="#000000" font-family="sans-serif" font-size="12" lengthAdjust="spacing" textLength="93.7148" x="13" y="431.5352">+RiskZoneId: int?</text><text fill="#000000" font-family="sans-serif" font-size="12" lengthAdjust="spacing" textLength="67.0371" x="13" y="446.6289">+Kind: string</text><text fill="#000000" font-family="sans-serif" font-size="12" lengthAdjust="spacing" textLength="118.4004" x="13" y="461.7227">+IncidentType: string?</text><text fill="#000000" font-family="sans-serif" font-size="12" lengthAdjust="spacing" textLength="77.0391" x="13" y="476.8164">+Status: string</text><text fill="#000000" font-family="sans-serif" font-size="12" lengthAdjust="spacing" textLength="147.7559" x="13" y="491.9102">+ResolutionReason: string?</text><text fill="#000000" font-family="sans-serif" font-size="12" lengthAdjust="spacing" textLength="97.7285" x="13" y="507.0039">+Latitude: decimal</text><text fill="#000000" font-family="sans-serif" font-size="12" lengthAdjust="spacing" textLength="107.7422" x="13" y="522.0977">+Longitude: decimal</text><text fill="#000000" font-family="sans-serif" font-size="12" lengthAdjust="spacing" textLength="158.3848" x="13" y="537.1914">+OccurredAt: DateTimeOffset</text><text fill="#000000" font-family="sans-serif" font-size="12" lengthAdjust="spacing" textLength="105.0586" x="13" y="552.2852">+SourceVersion: int</text><text fill="#000000" font-family="sans-serif" font-size="12" lengthAdjust="spacing" textLength="159.7324" x="13" y="567.3789">+ProjectedAt: DateTimeOffset</text><line style="stroke:#181818;stroke-width:0.5;" x1="8" x2="177.7324" y1="574.0156" y2="574.0156"/><text fill="#000000" font-family="sans-serif" font-size="12" lengthAdjust="spacing" textLength="122.4023" x="13" y="590.4727">+Apply(snapshot): void</text></g><!--class B_BusinessLocationProjection--><g class="entity" data-qualified-name="B_BusinessLocationProjection" data-source-line="37" id="ent0004"><rect fill="#F1F1F1" height="176.9375" rx="2.5" ry="2.5" style="stroke:#181818;stroke-width:0.5;" width="177.4219" x="325.5" y="60.6094"/><ellipse cx="339.5" cy="80.7031" fill="#ADD1B2" rx="10" ry="10" style="stroke:#181818;stroke-width:1;"/><path d="M340.9844,77.9063 Q341.0938,77.75 341.2188,77.6719 Q341.3594,77.5938 341.5156,77.5938 Q341.7813,77.5938 341.9375,77.7813 Q342.1094,77.9688 342.1094,78.3906 L342.1094,79.4219 Q342.1094,79.8438 341.9375,80.0313 Q341.7813,80.2188 341.5156,80.2188 Q341.2656,80.2188 341.125,80.0781 Q340.9844,79.9531 340.9063,79.5781 Q340.875,79.3281 340.75,79.2031 Q340.5,78.9375 340.0625,78.7813 Q339.6406,78.625 339.2031,78.625 Q338.6719,78.625 338.2188,78.8594 Q337.7656,79.0938 337.4219,79.625 Q337.0781,80.1406 337.0781,80.875 L337.0781,81.6563 Q337.0781,82.5156 337.7031,83.0938 Q338.3438,83.6719 339.4531,83.6719 Q340.125,83.6719 340.5938,83.5 Q340.8594,83.3906 341.1563,83.0781 Q341.3438,82.8906 341.4531,82.8438 Q341.5625,82.7813 341.6875,82.7813 Q341.9375,82.7813 342.1094,82.9688 Q342.2969,83.1406 342.2969,83.3906 Q342.2969,83.6406 342.0469,83.9219 Q341.6875,84.3281 341.125,84.5625 Q340.375,84.875 339.4688,84.875 Q338.3906,84.875 337.5469,84.4375 Q336.8438,84.0938 336.3594,83.3281 Q335.875,82.5625 335.875,81.6719 L335.875,80.8594 Q335.875,79.9219 336.3125,79.1094 Q336.75,78.2969 337.5156,77.8594 Q338.2969,77.4219 339.1563,77.4219 Q339.6875,77.4219 340.1406,77.5469 Q340.5938,77.6563 340.9844,77.9063 Z " fill="#000000"/><text fill="#000000" font-family="sans-serif" font-size="12" font-style="italic" lengthAdjust="spacing" textLength="74.7188" x="388.8516" y="78.0664">&#171;ReadModel&#187;</text><text fill="#000000" font-family="sans-serif" font-size="12" lengthAdjust="spacing" textLength="147.4219" x="352.5" y="93.1602">BusinessLocationProjection</text><line style="stroke:#181818;stroke-width:0.5;" x1="326.5" x2="501.9219" y1="100.7969" y2="100.7969"/><text fill="#000000" font-family="sans-serif" font-size="12" lengthAdjust="spacing" textLength="36.3574" x="331.5" y="117.2539">+Id: int</text><text fill="#000000" font-family="sans-serif" font-size="12" lengthAdjust="spacing" textLength="123.0703" x="331.5" y="132.3477">+SourceBusinessId: int</text><text fill="#000000" font-family="sans-serif" font-size="12" lengthAdjust="spacing" textLength="75.0293" x="331.5" y="147.4414">+Name: string</text><text fill="#000000" font-family="sans-serif" font-size="12" lengthAdjust="spacing" textLength="97.7285" x="331.5" y="162.5352">+Latitude: decimal</text><text fill="#000000" font-family="sans-serif" font-size="12" lengthAdjust="spacing" textLength="107.7422" x="331.5" y="177.6289">+Longitude: decimal</text><text fill="#000000" font-family="sans-serif" font-size="12" lengthAdjust="spacing" textLength="78.375" x="331.5" y="192.7227">+IsActive: bool</text><text fill="#000000" font-family="sans-serif" font-size="12" lengthAdjust="spacing" textLength="159.7324" x="331.5" y="207.8164">+ProjectedAt: DateTimeOffset</text><line style="stroke:#181818;stroke-width:0.5;" x1="326.5" x2="501.9219" y1="214.4531" y2="214.4531"/><text fill="#000000" font-family="sans-serif" font-size="12" lengthAdjust="spacing" textLength="122.4023" x="331.5" y="230.9102">+Apply(snapshot): void</text></g><!--class B_RiskLevel--><g class="entity" data-qualified-name="B_RiskLevel" data-source-line="47" id="ent0005"><rect fill="#F1F1F1" height="83.2813" rx="2.5" ry="2.5" style="stroke:#181818;stroke-width:0.5;" width="82.0195" x="214" y="422.1094"/><ellipse cx="228" cy="437.1094" fill="#EB937F" rx="10" ry="10" style="stroke:#181818;stroke-width:1;"/><path d="M227.875,438.1406 L227.875,439.9063 L230.9375,439.9063 L230.9375,439.25 Q230.9375,438.8281 231.0938,438.6406 Q231.2656,438.4531 231.5313,438.4531 Q231.7969,438.4531 231.9688,438.6406 Q232.1406,438.8281 232.1406,439.25 L232.1406,441.1094 L226.4844,441.1094 Q226.0469,441.1094 225.8594,440.9531 Q225.6719,440.7813 225.6719,440.5 Q225.6719,440.2344 225.8594,440.0781 Q226.0469,439.9063 226.4844,439.9063 L226.6719,439.9063 L226.6719,435.2031 L226.4844,435.2031 Q226.0469,435.2031 225.8594,435.0469 Q225.6719,434.875 225.6719,434.6094 Q225.6719,434.3281 225.8594,434.1719 Q226.0469,434 226.4844,434 L231.875,434 L231.875,435.8281 Q231.875,436.2656 231.7031,436.4531 Q231.5469,436.625 231.2656,436.625 Q231,436.625 230.8281,436.4531 Q230.6719,436.2656 230.6719,435.8281 L230.6719,435.2031 L227.875,435.2031 L227.875,436.9375 L228.9219,436.9375 Q228.9219,436.4688 229.0156,436.3438 Q229.1875,436.0469 229.5313,436.0469 Q229.7969,436.0469 229.9531,436.2344 Q230.125,436.4219 230.125,436.8594 L230.125,438.2344 Q230.125,438.625 230.0313,438.7656 Q229.8438,439.0469 229.5313,439.0469 Q229.1875,439.0469 229.0156,438.75 Q228.9219,438.625 228.9219,438.1406 L227.875,438.1406 Z " fill="#000000"/><text fill="#000000" font-family="sans-serif" font-size="12" lengthAdjust="spacing" textLength="52.0195" x="241" y="442.0195">RiskLevel</text><line style="stroke:#181818;stroke-width:0.5;" x1="215" x2="295.0195" y1="452.1094" y2="452.1094"/><text fill="#000000" font-family="sans-serif" font-size="12" lengthAdjust="spacing" textLength="29.0215" x="220" y="468.5664">+Low</text><text fill="#000000" font-family="sans-serif" font-size="12" lengthAdjust="spacing" textLength="49.6875" x="220" y="483.6602">+Medium</text><text fill="#000000" font-family="sans-serif" font-size="12" lengthAdjust="spacing" textLength="31.6875" x="220" y="498.7539">+High</text></g><!--link B_RiskZone to B_RiskLevel--><g class="link" data-entity-1="ent0002" data-entity-2="ent0005" data-link-type="dependency" data-source-line="52" id="lnk6"><path codeLine="52" d="M200.63,252.8694 C215.57,310.4994 231.8742,373.3814 242.9342,416.0414" fill="none" id="B_RiskZone-to-B_RiskLevel" style="stroke:#181818;stroke-width:1;stroke-dasharray:7,7;"/><polygon fill="#181818" points="244.44,421.8494,246.0533,412.1336,243.1852,417.0094,238.3094,414.1413,244.44,421.8494" style="stroke:#181818;stroke-width:1;"/><text fill="#000000" font-family="sans-serif" font-size="12" lengthAdjust="spacing" textLength="22.6816" x="213" y="296.0664">type</text></g><!--link B_RiskZone to B_IncidentProjection--><g class="link" data-entity-1="ent0002" data-entity-2="ent0003" data-link-type="association" data-source-line="53" id="lnk7"><path codeLine="53" d="M147.37,252.8694 C141.03,277.3294 134.17,303.7794 127.53,329.3794" fill="none" id="B_RiskZone-B_IncidentProjection" style="stroke:#181818;stroke-width:1;"/></g><?plantuml-src fLJRRjD047ttLupwL4HR0OzH5UIKMo2XLLs1n0lQx4wS9UiTQo-934BY8_X2leHP9mvkaqWWdhnxvdxEhFrIsreuKO5V24LhRKkO2-CnypkBDCBxF0IdPp7WM98jz5U49psNMiYbAB48ZK5mA8EmfUddCDfYQ6g4caoJBZsRmhc89hmY6zwB2g4GrXVezFomJrlywRDieHK2LdLeeC9gXivdGGUkFxO-v0PTW16tXLR1hny_OIhgEasNpXKfDCH9GL6bhQQidH5ERhLVVYAB9o0yZ3vtLxYypClIOIa23eVmBGDuF5O3q3QaO-fw09u9icMwZoXQ9Lpp6kcj9zitfOmJNA4PmExOPhEInx7XYaF3Bl57RLcJ8WZ7s0ikVgShl9xFFVRCBwqwPBmIHaR3iCeF1j-GqRBvmBJf1osYx49FzROjVvQ4O_ypiBH-D80LQPLzxsZhkhznz8N5vuHR0lSDJEKj2ZLD2XoWig3e9BRgzT1HzBmotlUWJfejz3nXxtIYuiyaNVKxNhmERnsPqH3z_Q4zcPWQvEvwchNk4y6B5HNdK2Xr9Lh59cJBVVHQokZSCSutq-qutuwo9UTOK5xNfZdrLjH-GM6F-uwR2KcH-j_JuBZ3NsbnWFk7-_uF_8nzpgLN3Cw8p7zCZpPMc_VQlg7UWstlcs4cj4wVAIeTgtHweyi51_TUziN5y5xS0D9lgkznVdvmaRFV?></g></svg>