<?plantuml 1.2026.2?><svg xmlns="http://www.w3.org/2000/svg" xmlns:xlink="http://www.w3.org/1999/xlink" contentStyleType="text/css" data-diagram-type="CLASS" height="293px" preserveAspectRatio="none" style="width:301px;height:293px;background:#FFFFFF;" version="1.1" viewBox="0 0 301 293" width="301px" zoomAndPan="magnify"><title>InstAlert &#8212; esquema relacional &#8212; Iam</title><defs/><g><g class="title" data-source-line="8"><text fill="#000000" font-family="sans-serif" font-size="14" font-weight="bold" lengthAdjust="spacing" textLength="255.2949" x="15.8525" y="24.5332">InstAlert &#8212; esquema relacional &#8212; Iam</text></g><!--cluster Iam--><g class="cluster" data-qualified-name="Iam" data-source-line="9" id="ent0002"><rect fill="#DBEAFE" height="242" rx="2.5" ry="2.5" style="stroke:#000000;stroke-width:1.5;" width="288" x="7" y="45.6094"/><text fill="#000000" font-family="sans-serif" font-size="12" font-weight="bold" lengthAdjust="spacing" textLength="20.6777" x="140.6611" y="60.0664">Iam</text></g><!--class D_users--><g class="entity" data-qualified-name="Iam.D_users" data-source-line="10" id="ent0003"><rect fill="#F1F1F1" height="192.0313" rx="2.5" ry="2.5" style="stroke:#181818;stroke-width:0.5;" width="255.4219" x="23.5" y="79.6094"/><ellipse cx="129.5264" cy="99.7031" fill="#ADD1B2" rx="10" ry="10" style="stroke:#181818;stroke-width:1;"/><path d="M129.4014,100.7344 L129.4014,102.5 L132.4639,102.5 L132.4639,101.8438 Q132.4639,101.4219 132.6201,101.2344 Q132.792,101.0469 133.0576,101.0469 Q133.3232,101.0469 133.4951,101.2344 Q133.667,101.4219 133.667,101.8438 L133.667,103.7031 L128.0107,103.7031 Q127.5732,103.7031 127.3857,103.5469 Q127.1982,103.375 127.1982,103.0938 Q127.1982,102.8281 127.3857,102.6719 Q127.5732,102.5 128.0107,102.5 L128.1982,102.5 L128.1982,97.7969 L128.0107,97.7969 Q127.5732,97.7969 127.3857,97.6406 Q127.1982,97.4688 127.1982,97.2031 Q127.1982,96.9219 127.3857,96.7656 Q127.5732,96.5938 128.0107,96.5938 L133.4014,96.5938 L133.4014,98.4219 Q133.4014,98.8594 133.2295,99.0469 Q133.0732,99.2188 132.792,99.2188 Q132.5264,99.2188 132.3545,99.0469 Q132.1982,98.8594 132.1982,98.4219 L132.1982,97.7969 L129.4014,97.7969 L129.4014,99.5313 L130.4482,99.5313 Q130.4482,99.0625 130.542,98.9375 Q130.7139,98.6406 131.0576,98.6406 Q131.3232,98.6406 131.4795,98.8281 Q131.6514,99.0156 131.6514,99.4531 L131.6514,100.8281 Q131.6514,101.2188 131.5576,101.3594 Q131.3701,101.6406 131.0576,101.6406 Q130.7139,101.6406 130.542,101.3438 Q130.4482,101.2188 130.4482,100.7344 L129.4014,100.7344 Z " fill="#000000"/><text fill="#000000" font-family="sans-serif" font-size="12" font-style="italic" lengthAdjust="spacing" textLength="39.3691" x="146.5264" y="97.0664">&#171;table&#187;</text><text fill="#000000" font-family="sans-serif" font-size="12" lengthAdjust="spacing" textLength="29.3438" x="151.5391" y="112.1602">users</text><line style="stroke:#181818;stroke-width:0.5;" x1="24.5" x2="277.9219" y1="119.7969" y2="119.7969"/><text fill="#000000" font-family="sans-serif" font-size="12" lengthAdjust="spacing" textLength="138.709" x="29.5" y="136.2539">*id : INT NOT NULL &#171;PK&#187;</text><line style="stroke:#181818;stroke-width:0.5;" x1="24.5" x2="277.9219" y1="142.8906" y2="142.8906"/><text fill="#000000" font-family="sans-serif" font-size="12" lengthAdjust="spacing" textLength="222.7266" x="29.5" y="159.3477">email : VARCHAR(254) NOT NULL &#171;UQ&#187;</text><text fill="#000000" font-family="sans-serif" font-size="12" lengthAdjust="spacing" textLength="243.4219" x="29.5" y="174.4414">password_hash : VARCHAR(255) NOT NULL</text><text fill="#000000" font-family="sans-serif" font-size="12" lengthAdjust="spacing" textLength="215.3906" x="29.5" y="189.5352">first_name : VARCHAR(100) NOT NULL</text><text fill="#000000" font-family="sans-serif" font-size="12" lengthAdjust="spacing" textLength="214.7344" x="29.5" y="204.6289">last_name : VARCHAR(100) NOT NULL</text><text fill="#000000" font-family="sans-serif" font-size="12" lengthAdjust="spacing" textLength="157.4004" x="29.5" y="219.7227">phone : VARCHAR(30) NULL</text><text fill="#000000" font-family="sans-serif" font-size="12" lengthAdjust="spacing" textLength="184.7109" x="29.5" y="234.8164">status : VARCHAR(20) NOT NULL</text><text fill="#000000" font-family="sans-serif" font-size="12" lengthAdjust="spacing" textLength="204.7207" x="29.5" y="249.9102">created_at : DATETIME(6) NOT NULL</text><text fill="#000000" font-family="sans-serif" font-size="12" lengthAdjust="spacing" textLength="208.0723" x="29.5" y="265.0039">updated_at : DATETIME(6) NOT NULL</text></g><?plantuml-src XP7TIiD048NlynH3lAbUjTLw8IKGROh1MhK_tePfCccMRZPnTqA98lWGFg5FuhQAJK0eoyBEdc_F76RDHgWIDUPWCaoAhL1hI54QSioV4aiqncVMObKnXN6XvkALeDj0IemtkAOvrv90KyoerhBf8OKYhak2if3rhcXe2QLOIHuNYgUO4ynHcJbfaVxFx9lt-auc4WBAIwuXftn5sZWisFOFbM5VacRu-lW4CYyLvMXJIOn5eL3khqFCdT_KuDh2XPFHTU2F0tXpI5cZ6jpAM5CNqC0esfzXE6HSIV8yIvs1IE0Amka2fWzsBoSJgp_UUPu3DXSAQTLdVtPpwyyw_S75QHDRFksnqavsM-Waoj1aBNnmm2sN2cquKhlf7A1Ujzk2x3STPSgiK4tzV2V_I8QHAzCCqNuQQqAc94AspCXV18lmFkXSjfYgJ8umxtPz0m00?></g></svg>